<mxfile host="app.diagrams.net" modified="2024-05-09T06:03:47.641Z" agent="Mozilla/5.0 (Windows NT 10.0; Win64; x64; rv:125.0) Gecko/20100101 Firefox/125.0" etag="C7OekPjx34-umpbrvYZO" version="24.3.0" type="github">
  <diagram name="第 1 页" id="9k2z1XegkXRDJ7r0-_jc">
    <mxGraphModel dx="1674" dy="792" grid="1" gridSize="10" guides="1" tooltips="1" connect="1" arrows="1" fold="1" page="1" pageScale="1" pageWidth="1200" pageHeight="1920" math="0" shadow="0">
      <root>
        <mxCell id="0" />
        <mxCell id="1" parent="0" />
        <mxCell id="MkHFsCLsAwI2TH1CDEJg-1" value="" style="shape=image;verticalLabelPosition=bottom;labelBackgroundColor=default;verticalAlign=top;aspect=fixed;imageAspect=0;image=data:image/png,iVBORw0KGgoAAAANSUhEUgAABGEAAAGgCAYAAAAKHHqEAAAgAElEQVR4XuydB5hV1dm235lhht6lKIJgL6iIFXvFGHuJfsY0NTYsSUx+E8uXL5ZUY2yJxhZjjzV2DfaGXbAL2GkqgkCkzjDzn3vpwsMw5Zx99tlnl2df11wwc/Ze5V7lrPXs931XVVPuMl0iIAIiIAIiIAIiIAIiIAIiIAIiIAIiIAJlJVAlEaasfJW4CIiACIiACIiACIiACIiACIiACIiACDgCEmHUEURABERABERABERABERABERABERABEQgAgISYSKArCxEQAREQAREQAREQAREQAREQAREQAREQCKM+oAIiIAIiIAIiIAIiIAIiIAIiIAIiIAIREBAIkwEkJWFCIiACIiACIiACIiACIiACIiACIiACEiEUR8QAREQAREQAREQAREQAREQAREQAREQgQgISISJALKyEAEREAEREAEREAEREAEREAEREAEREAGJMOoDIiACIiACIiACIiACIiACIiACIiACIhABAYkwEUBWFiIgAiIgAiIgAiIgAiIgAiIgAiIgAiIgEUZ9QAREQAREQAREQAREQAREQAREQAREQAQiICARJgLIykIEREAEREAEREAEREAEREAEREAEREAEJMKoD4iACIiACIiACIiACIiACIiACIiACIhABAQkwkQAWVmIgAiIgAiIgAiIgAiIgAiIgAiIgAiIgEQY9QEREAEREAEREAEREAEREAEREAEREAERiICARJgIICsLERABERABERABERABERABERABERABEZAIoz4gAiIgAiIgAiIgAiIgAiIgAiIgAiIgAhEQkAgTAWRlIQIiIAIiIAIiIAIiIAIiIAIiIAIiIAISYdQHREAEREAEREAEREAEREAEREAEREAERCACAhJhIoCsLERABERABERABERABERABERABERABERAIoz6gAiIgAiIgAiIgAiIgAiIgAiIgAiIgAhEQEAiTASQlYUIiIAIiIAIiIAIiIAIiIAIiIAIiIAISIRRHxABERABERABERABERABERABERABERCBCAhIhIkAsrIQAREQAREQAREQAREQAREQAREQAREQAYkw6gMiIAIiIAIiIAIiIAIiIAIiIAIiIAIiEAEBiTARQFYWIiACIiACIiACIiACIiACIiACIiACIiARRn1ABERABERABERABERABERABERABERABCIgIBEmAsjKQgREQAREQAREQAREQAREQAREQAREQAQkwqgPiIAIiIAIiIAIiIAIiIAIiIAIiIAIiEAEBCTCRABZWYiACIiACIiACIiACIiACIiACIiACIiARBj1AREQAREQAREQAREQAREQAREQAREQARGIgIBEmAggKwsREAEREAEREAEREAEREAEREAEREAERkAijPiACIiACIiACIiACIiACIiACIiACIiACERCQCBMBZGUhAiIgAiIgAiIgAiIgAiIgAiIgAiIgAhJh1AdEQAREQAREQAREQAREQAREQAREQAREIAICEmEigKwsREAEREAEREAEREAEREAEREAEREAEREAijPqACIiACIiACIiACIiACIiACIiACIiACERAQCJMBJCVhQiIgAiIgAiIgAiIgAiIgAiIgAiIgAhIhFEfEAEREAEREAEREAEREAEREAEREAEREIEICEiEiQCyshABERABERABERABERABERABERABERABiTDqAyIgAiIgAiIgAiIgAiIgAiIgAiIgAiIQAQGJMBFAVhYiIAIiIAIiIAIiIAIiIAIiIAIiIAIiIBFGfUAEREAEREAEREAEREAEREAEREAEREAEIiAgESYCyMpCBERABERABERABERABERABERABERABCTCqA+IgAiIgAiIgAiIgAiIgAiIgAiIgAiIQAQEJMJEAFlZiIAIiIAIiIAIiIAIiIAIiIAIiIAIiIBEGPUBERABERABERABERABERABERABERABEYiAgESYCCArCxEQAREQAREQAREQAREQAREQAREQARGQCKM+IAIiIAIiIAIiIAIiIAIiIAIiIAIiIAIREAhFhFm6dGkERVUWIlAagZqamtIS0NMikCPQ2NhoTU1NVl1dbVVVVWIiAiIgAiUT0LxSMkIlIAIiIAIiIAKJIVCyCIMAM23aNKurq0tMpVXQ7BFYsmSJDRo0yCTEZK/tw6gxokt9fb0tXLjQFixY4IQY5rzOnTtbp06drEOHDmFkozREQAQyREDzSoYaW1UVAREQAREQgTwCoYgwM2fOtIEDBwqsCMSWwCeffGL9+vWTCBPbFopfwdggIbYgvMyfP98Q8mpra61r165OdFm8ePEyQaZjx47WrVs3418sZHSJgAiIQEsENK+oX4iACIiACIiACEiEUR/IBAGJMJlo5lAqiXXfokWLnMDCvwguWLwgvmBJlS+yINIgznz55ZdOlME9qUuXLs46BksZCTKhNIkSEYHEE9C8kvgmVAVEQAREQAREIDQCEmFCQ6mE4kxAIkycW6eyZePNND+IKVi8ILxwIbwgqBQqpjQ0NDghBssZ0kCw8eINQo7ix1S2nZW7CERJQPNKlLSVlwgURoDv57lz5xZ2s+4SAREQgQIJ8J3fv3//ojwuJMIUCFe3JZuARJhkt185Ss+EiWjirV6wasGCBYsX3IoQTYIIJ97dAEsaRB3Emfz4Mbg06RIBEUgnAc0r6WxX1SodBP773/86N2Pch3WJgAiIQFgEPvvsM4kwYcFUOukiIBEmXe0ZtDYsvnAL8AF2EUgQRXw8l7AD7PrAm17oIW8fVwbBRycsBW1JPScC8SGgeSU+baGSiEBbBBBhuLp37y5QIiACIhAagSD7TFnChIZfCcWZQJDBEef6qGzFEeBkI6xeiN3ihJcOtda5y1fuRrgNBbF4Ka4E1qLLExY33uVJJ3cVS1T3i0C0BBBbJk+e7A4i6NGjh5tLNK9E2wbKTQRKISARphR6elYERKA1AkH2mRJh1J8yQSDI4MgEmJRW0rsEsUHCJYh/sTrB1cgHzY1CeGkNLxYxxKDx8WMor48fg6WMAvqmtGOqWqERYMx4d7/WEmUc8cabsY4Qy/2FXl4czb//o48+sn/84x92yCGHuNP2WptXpkyZYk8++aTtt99+zhWxeb5sBB988EGbPXu2jRgxwnbZZReXzSOPPGJDhgyxtdZaywnGLV2ItVjuUSdEIOrID9Z2/vcvvvjClQ2Rt/m8wtxTiAWeF66ZMwudKydNmmQw2mijjezVV1+1zTbbzPr06VMoct0nAmUnIBGm7IiVgQhkkkCQfaZEmEx2lexVOsjgyB6l5NeYN9X+6GgEDjYPcRY3vFjEBir/GGzKjFiEIFPoBij5racaiEDhBBAJLrvsMvvwww+tb9++KzzI57NmzbKTTz7ZCRuIA/fdd5/Nmzdv2b2Mv7fffttZo3GPFz8Zd9ttt53z7+Y5hAuuN99808aPH+8+Q9xBoMgXTfl94403dtYy11xzjZ1xxhmGIPL3v//dzUOIJFOnTrU99tjDtt9+e/vggw9stdVWs0GDBrnPrrjiCvc8v//tb39zcwL/9+WiHJ9//rkdddRRTqhBtFl33XVd2RF1EEGOPvpou+eee4zN5sEHH+zmQwRfyskP4sjQoUPdT2tzC1xee+01+/e//23HH3+8E5wKuV588UUbN26c/eAHP3CcKM8BBxzgOOoSgTgQkAgTh1ZQGUQgfQSC7DMlwqSvH6hGLRAIMjgEMhkEEF7YwBAIlx8fYJeNFW+Ck+Lmw8aHeiDIICCxiaTsbOzYwEXlNpWMVlcps06A8YFoscYaa9iWW265Ag5OQEEI+d73vmerr776Cp8zxh577DG799577fDDD7fhw4e7ceYvBI93333X3njjDSdkfPrpp/bKK6/Yt771LeeO1NKFhQoiD4II4g5izV577eWEnMGDBzux6Nprr7UjjzzSjfErr7zSCSXDhg1z4/6mm26yddZZx7baait76aWXnIiEiOFjVc2cOdOJM4ceeqgNGDDAzj77bPvhD39oG264oc2YMcMJL2uuuabdcMMNTvwZM2aMe9bPKwQOxJJn1113tU033bRVd0zmIsSa66+/3k455ZTlRBREJESeOXPmrIAAgQhRDOse8oXZSiutZAceeKATiyQoZ33UVr7+EmEq3wYqgQikkUCQfaZEmDT2BNVpBQJBBocwxpuAd+dBeGHDhNm/dzcqxNw+zrXzgky+sORdC/g37ADCcWahsolASwQQYS688ELD9aclUYTP+ezUU09dQYRBzPjXv/5l77//vnP72XfffZ1ogVCCKw2CZ/68wu///Oc/3d+PPfZYZ6XW2oVgg4By++23209+8hNbeeWVnRjx+OOPOwsYBJL111/f/Q3LFEQdxKAJEybYCy+84AQZRCUsXbCowfWJMc+FJc7NN9/srFM+/vhju/TSS22nnXZa5s6EMIIIQ928CMNcwnNY7pAnwgpCzzbbbGOrrLKKmzv5fqS+WKwgajGX5oswWMLAEvcpxBTYeuugfA5Yvjz66KPOEgYR3F8tuXapV4tAJQhIhKkEdeUpAuknEGSfKREm/f1CNcwRCDI4BC5eBLzrjj/ZCBEGMYIFPm+w03r0sz/y1sePwdKHTZk/SlvxY+LVT1WaaAgUawnDOMJKBUECtyTcgL797W87l5tRo0a5QLvPPPOMIdBgJbLJJps44YLxhbBw0UUXOYEEUaX5xVy0++67OwsWLlx5sML5+c9/bu+8844TYLASQeTAGoUxjPiDCILY8t3vftdZspxzzjlOdCEtfkdwwdIFCxrKT7mxzvnxj39sTzzxhLNqIe4KIhKCDVY7P/3pT50AhAjDfcSm4d7vfOc7ToS55ZZbnJCyzz77uNgy3mqGusIHK5b999/fuRIh2PziF79wad14440urz333NOV4a677nL14PL1RwyjzAhVzMtjx451Ath6660XTadQLiLQDgGJMOoiIiAC5SAQZJ8pEaYcLaE0Y0cgyOCIXSUyWiDeuLo4L/MX2KLFi9zbaEQXFvmIMFkSIfJj3uC+AAveyvtgw1likdHhoGp/TaBYSxgvviA27Lbbbi7WCsLmVVdd5eKweHckxA9EF+KsjB492l5//XX785//bD179rTTTz/d/Zt/MT/deeedzhoHgcKLMFjp8DtxXxA7cMlpbsGG6w5ixgknnGBPP/20KwsiD+5CBOu97bbbbIcddnCWK8SHIU0EIsqFVQqiDVYnlP2BBx5wZfUiDKIPzz377LNOgMFlCUuZSy65xFnk8DsWM9OnT3fuWMynCEaIR/vlRJ26nNBLvXgW9yrEGax2mHsRq15++WXnFsWc4+uPSIO71RFHHOEsZf7yl784UQlBS5cIxIGARJg4tILKIALpIxBknykRJn39QDVqgUCQwSGQlSHAG19+/GkmbJS4vPCCqbzEBnNxHpYgTuX48G91M3FK8Rcq03+Va/kJ4DqDCInA0bt37xZP4GH+wGID6xXmDr4DuIhRwkbMuxsRd2XVVVd1afiThrjvvffecyIN1hwILwgPuCo1t7hjruLevffe252GNG3aNCdE4M7zv//7v04gRUBB1Gl+IS5jGYOly9133+0EEYQMYsjgsoTISrkPOuggF2MGqx0C7yL4IKj4mDAbbLCBs5LxIgziDUF7mSMQTg477DCXFnFyiCmDBRAWKr///e+dyMM9XDC94IILnMUOgXuJWQM7rIQQoCgn8wosqB8BgmGG9QuMtt56axenB8EJgYn2ISZPW+5b5e8tykEEviEgEUa9QQREoBwEguwzJcKUoyWUZuwIBBkcsatEXArU9NVJIVZVE2qJ2Mzkx3nxAXa92w2LfwkLKyL3blo+fgwbLzaKPjBxWt20Qu18SqzyBAqcV5gXOIGHn/y4JPwd0QVRJv80H8YHogJCAyIEIgHWMLj0+TnFzyvcizsS1htYx+DGgxiBOIGwQoyXtixhsF6ZOHGiC6iLKIIIQ5q49RAnBtcjHyicmC4IM94KhjyIu4KlC3likcPnWJnsuOOOTgzCegc3ItJoS4TB5QgRBgsZXIlOPPFEJzTlizC4YyHi4MqEEMPF/ItI06tXL/fsueeeawg8iEPwQ2RhPsYK5j//+Y97DhHmueeec5YyWPDACb4E8KWsuD7pEoHICbQyn0iEibwllKEIZIJAkH2mRJiIuwYLRd4QscjhzVuQyx8fyVsmzIp90D4Wfpge4xfOPfhhs3gjr7YuysSbLa4ttthimR83b+LSsukNMjiCtE0WnmmcNdmaFsy0mkFbmFV3KKnKPgAtb5z58QKCF17iGoCWDRObD6xyGD8IIJS50uPFC1n+mG4fsBhBhrfRSQ9YXFJn08OxJhBkXsHqhO88xA9cfvJPS2JcMqcwFhin/DBOiYGC+w3xWJpfiBDXXXedE0s42ciPZ2K8kDYxXpp/n5IPViwIP/nuSLj1IMJwP98/BPblpCREDR/vZfPNN3eWL7g/jRw50u644w4n/hA0l4u0n3/+eWdpwsVJRb7cbYkwxIRBTMIKheOxEaGoMyy8JQx1xL0JlyVOYKKuxKnhb3z3IwAhHnHENwIS7lJY4SBCIcIgUBFLh7kFVy/qhQgDC055wo0JyyCsc7gQaWTBGOshmKrCtTafhCXCYN3Gd2r+6Yt8/7I2YB7hYv2CJVmh/Z75iXsLsRxjbuNev/5PVeOpMiKQQAJB9pkSYSJuaBZGLOZ408YpBEEuguv98Y9/dIsfTn5g88fbLhZXLLLw9WbxNn78eGdGfMwxxzgT7NYuNmr4hnOxaMJnnNMZ8hehQcoZp2eCDI44lT9OZVk65VmrH3eedRjxA+uw5h5mNbVFF88fmcpCBrcBb7lRzFHMLHbYHPlFVUuFYPOBGMliiDfPBK8s5GJDQhwD8uDNdv4bd94o82aYjRRm9xxbSywFxg5v4VmIkRciaUsniPj8KZt3OeBv+eXjlBbmh1KO1/aCDIypB3XKP2Gp0IVhIbx0jwiUSmC5eWWt3LxS3fa8wryB0MFYRBxBZMGVBmsY3Gb4nXHvrUd46cH3Ly42P/rRj4oWYX796187IaH5podxhgULL0Sw/ODygXm9CMM8gGiBkIGlC2VEtMCShLmPunCxNsgXYXBVoo7MNVih4EbkTx3CquV3v/udi2+DGPLwww+vEJj3uOOOc3+jzhyLzclJiCx8v2+77bbuNCbivSCYMK8h+FBOAuuyIfRHVDNXEN8F4eZ//ud/3BzHmoM5hQ0n9eEehCQsgPiBF/nhQoVlDHFsNOeUOkr0fKEEWlunhCHCsAZnHDF+ER75nmaMs+bm+Ha/ZsBtEIF45513dmvxti6ex40QIZQ4T21ZsLJ+Ys3OdzviKnOdLhEQgcoSCLLPzIQIw4IB1ZjFgg/q6d+w53/mN4IsLFiAcC+iBv+y8GGSJB3+zU/HbyiZCL06jTDSfMGBMMKRmCy0Dj74YLegIx0WYDxHWVDA21K2KQ+B/DA15o0YJxeQF4sp3uAhyvB30mLhRkBB3r7xJcDF82zIuKgTdW5PhPEuInDJP4XGBwb1G7w4WAK0NgSXGxxLcwveXF1KteKo7HCvXO4sbpY8fJpZbWer2/IEq1ljdLssfZwX+p8XBfy48kFli7UiYfPFQog3yS1ZlSGCsFEZM2aMG1OIHMRu8Je3SmNjtP3227vTUnwZGBdsKOg3pMNYpuyMO0RO3lRffPHF7u07Cy3GGG/C+Z0LazfGemsXb/Ax18e9gXFDDAg2ObxRplwINLgpsFEK42KM+3HMeKU9GP/kTV0LYq9x025T0MfYOLfkOuetvhDYWrLCaDfxlN9QzLxCf0b8ZNPC9ycvGdgQcdQz4iWCRf68wvhFCECEwTIE0aG1U46wRkEcbW4Jk2/Zkt8UlIWTgxB+EEm4EGFwyznjjDOcJQxjj0C6BN5F5CB9rFoogx97/rQnRBhEEjZyWLTwPAFwEVOYJ/gupw+x7sDq5KmnnnL58jtxYxBQCNKLZSwBcul3bNjYOHLSEqcl4cqF1Q6nOTGnvfjii66MzAeIJcyp5A9f5k/qxj38/v3vf9/NedSDe3iG+DKUnw0uc5tfwyBSkz6CNuJTi/OM5pWUj+zKVK+1+aRUEcZb0zGm+P5mHLGW4QUP3+G43zF+2GMw5hAkmZuYc9oSVphH/ElljLn2RBjW+1jDcVy9RJjK9DHlKgL5BCTCtNIfOGqRtzEswJgYeQOFHzQbJkxl7733XrdZY9GG+w4LOP7G2y02XmxWMNfFJJeFH5MwGyU2aRzl6E2NWVCxseIzFlJszFj4+YvJH5Pk+++/3y3COD6SjR+TNOa9TMIsJnmOt/fNRRwWUyyEWHRhKky9OAmBRRB/v/zyy53VC5tEFkEsyvDbJk3cjDgtgQUmXxZw4C0VwQT5vDVLGJ7BJ528WEDhq06d2XDClE0tizfqiXrPYi2OlxscfXtb1edv2dIZL7t4JtUDNrSa3I/VdIxjkWNbJr+4aWpYaFXdBlrdqJ9ZzWrb5ZhWr1BmxgL9wwfS5AYfYJdFRilvRhFhsP7CpD9/nJEHYwUhxIsw5Jl/8TnjmQ0ZG2Is0+i7+Rszys4GggUOogtjlN8x8ec+xsVbb73lxjF5MQYZT2xIeEvM3MIYbOnifjYrvMFn/NI/GWu8jUakolxcv/rVr9znYV0+fgxCjLdC8ibTzH8tCjKNDdb46esaNwU0Ahtl2PId07xvs0klmClz59prr11Aatm6pdB5he9JxBbGI+IpPBE9sEbLdxPM3/BzD99bPPub3/zGibYtjSvGB+OS+aA9EQaRA9GUN9e48yI4sCZAiMMqhe97Nl5837JZQrAgsC/fz7gfMd75/kfQYL3APMMLGtyDEGzoK1jXkCbzF2WjzuSFRQp190F/vbsV9adezLleVIEDfY85mHmSdBj7jHXS9W5b+RaJPOPv8y9X+J06MXfBm40l6XEvad16661uvuXNP/Mem0TGA/Phaaed5ua25S7NK9ka4BHXtrX55L9fznclab5mKKR4jAHW37y44SUnVmiIMIwBYjYx7hFXeYnCxThA9GQ9wNqAccrfGEPsFVinM5ZZezAOm4sw7D+YP9i74AbI3MB49OPLizDMRRwvTzmYV0iTdX1BL1cKqbjuEQERaJeARJgWEDGJIU5gCkhgOS8q8LaHxc9f//pXZ5HCgobJDlNC3iT5IxgRNZhQmXARHXA5YDHB23EmTN4KkTYLO972cIoBCxF8opmgeWvlJ0L/5p0NFia9CC28sWIzyJsuFopM8Jg0Ekiv+Zs63rDydg3TYxaT3OtFGCZ53Ih4E0b5mIQRXngriIjEgoxnqT8LQzYIiEGUCdNs3qhx5bsjsbnl7R9pY7nDQgvTZfJmI8pbOsyXUe0HDBjgJv1SNtXt9vASbvhkxnTrPecla3zlslw8k1kupapOPXOWHCdazVq5t5ctCAglZJfqR/MXNzlwVtUdIeZkqxmSi2OQ40ifYpGAdRcLfxYuLD58oNhSXGzywRZjCZMvwjA+2QTxNpgNAoshRFbGHfcxT/hFEYslxihuRuTHmGDDxMWGhM8QIhEyEHb5jIUVY9XHZmqpMzS3hGl+D+PsoYceWhZTohwdyltmsHGjrdiEUQ/aaZlbmDVZw+QHrf7Fv2ncFNAICG98V/hTZPIfYd5kMc2czGJa1/IEWp5XcgLvkJw1WN68wriDM9+XfO8UM6/Qz7FQow1airtAG2FtwoYn/4UC34E8509HYuyw8UGEZdxwv495ggjDvEEbM9cxD/DShJce+Zd3pyRP0mXMsa7wJznxwqMlCz/mL8rC+qGQ2BFR9DO48qKGOtIezP+sNWgn6sN6hM2j5pUoWkN5QKC1dcqC3hu5+SSICMPcwLqf/cLjjz/uxi0iDOveCRMmuJcn/M4anfSbn+TIfoR1N4INL4HZGzCGWU8zJ+WLMIi7vBxFjGUeYC3FngD3I37Pt4RhvcCLY+ZD0mQdz35EIozGgghER0AiTAusWRxceuml7g0Zoog/rpLNBgH9mEgRMjD55R4mRxYMvNVGZUaQYSJlocTbI55jEYiVDCbITHZMjLyRx/+ahRcLNEQNFmiYK3ofborH5uyiiy5ywgeLPI6IRBDi7RETJos94r2wEWSi96IGixqsWJjEEVEQbjAH9iIMaTNpUydUevLhh0URdWBjeP755zsrG97EcSE6IRb97Gc/c89w5YswLALPO+8894aPkxK48P3mi+Kkk05yCr+3NIi7OeQnH02ybs+dYdXzPl6ul1T3HGK1o35qVR2+tpTItUF1vw2Wi3PSNHeKNeXe2rV2VeViolR1HfDNMznz6qb5n1oTZtatXM5docfgnBvPNycMxTWfpsXzrOmLnGtNrl9zNX72htW/fGWufouX1a6612pWvdXPbVHPdd1igf5Kn2DhXa6AsMVawjB+cdtDvERYZSww5hkDiJ6IjHxGH2eMIGJSdqzJEEQQWbwFi684ogsiDpstxjFzAYsxxkVbF+kg+uBGgGtBfmwY5gAs5lhQtWfCHNbXixdk/AlLXjjrXF1v1Y+cbE1zPmh73PhPO/Ww6p5Dl/Xrpi9z46B+QZvFrKrtkrOoyo2fr6+mBZ9b0+L/tv1MXW4B2yVndfe1eBpVPu3xLoclTJx5BOHeOOdDs4VfrIAyLvNKe22szwsnUPK8EtH3Me7J1RF8H6ctn6jWMW1yy61Pcgu0FeeTmW9+tU5p+Mr9not1yqKNjrOaVUbmRJK2Y7Q0T5DvRr6Xedm4++67uxe4rBO8OxJirH95wt6B73U+57sdFyXWQ3znX3311U50YU3t1x/sU3jhy4tevv9Zs7PuYD2PpS3Wut6dkfSwqmH/4S1hsKbHMhfLWdbt7FN0KmLh85TuFIEwCEiEaYEib+V5U40vM1YiiC1MiIgNCC0smon+n/+mHMGFjRnPHnbYYW6DhakfAg2qNBMmm0s2X/hYs/HiSEhEGIzAuM4AACAASURBVP/mCoGCSZHgdPmnKeSLMKTBEZFMvv7tOmnjV5o/uVMtzH9RxbGYYXLHAgVrHfJks8ZzTLpeMGIi9z7lvO3HtBprHaxk/NszBB0mdiZu6sWVL8JQl3POOcdtWL2PN18aiFCIP3yhwAgGcT3FxneJGR9OtO6Pn2jV9bkv7Pwrt4lDiFl2dexhHUef66xkuJqWfGlLnjjHmhbNaXWMVndf2WpH/jgnqgz66pkvP3Ff/o3zprb6TFXH3FuS7c9IRD6N03PxAsb9ZZkIw6a6af5MappXv1yMnUFbWsPIk2xh1VfmsvnBdstxKg/+1li58UYYS5XmF+MTYZK4CD7oHZsC/LW96MGbLczoWegwTn0sJSxl6P/UgXkCN0Weaeli8cUc42PAMB8wRhBf/ZsoLCAQeBBqfNwYrNPgQuBQ6sA8w/zA3MPcwFgP0xWprS8ZxrGPecVi05+q1LWmwaruy8WVWNRs04w7X8+ciNjsqh66g9WNPGKZi1/D23fa0vcfblXErMqlU5N7psPwg79KKSd2Nrz7oDVMvLet4uYCQu9uHdbZe1ksoqjyabNQuQ9Dt4SJOY+iueeE2/oJ1+T6xKMroHTzSu7UNS/2uhuI3bVKtPNKe22szwsnUPy8UqHv47rc9/EOEXwfpy2fqNYxrXFDzF2CCJO/Fvmqf/KSyK1T8l+gEUi674jc2us069J3xe+v1no2/ZiXnqwFWCuwX2hpnc59rKmxaONFLetq1gYINayt2RMgrvA763DWG9zLC1uCeLPuYO1OEG1e1mJN5o+B9+EI+G7G5QnBxoswWNewJyAmZHsBgAsfvbpTBESgGAISYVqgxWaQSRCrE/6PDzebLjZiiAu8tfZxGbxgw+TIhMsGCrch/mXyZBOFBQsiCBsoLGywYGHT9Y9//MNZh3gXIiZaRBImS7/ponj5IgwmzIgcbLYIkMfF2/pzzz3X/e5PE6BcpIe5obcqYKLGEgBxBZcoH7uCN+f5ggjPYOXy3e9+1wUFRDBBlOFig8oXAIo8kzhXvgiD+s4XAZtY1HUub87NppEAwVzkH3cRBkuY7s/80qrmz1iul1T3WcM67vZHs9ybdX9VdVr+SO+2BJivnslZtfB8vlVLTrxZ7su/hb6ZnHyacpvwbyw7Gqc+Z0ue+sPyb5h6rGq1W/3UagaPsqacsOVjENBfuBAHWbgg5pXqjkTaiJIsQBAMSLcls1sWLYiGfI74iPsh5UGc9LFauIdxkB9IGzNi+jcCDZOqH9/enL55U+J+wjjEqoX0qCMWdtTTBwhFoGFce8GVcrGIQvhhnDN+EEWJCcF8wTgutwDj31L7YMn5wtmyozdzC9zFdx65gqDY0rhxXLAKq82LYcNCuP6rPtDq1fyZxpwl2ZKv/PZbu6qI45QLDL3siiqftmviFt58NyCsNe+TLJ5xVWHebykobKtJx5lHEO4NuT6RiyfV/GpxXskJfbVb/iSSeaWdptXHBRIoeF65KzevzF3+RYW+j1uCnPb1xVcvu8JeL7W2Tlm0wZE5F8ecu1CP5dd5bXVv1u1YhbP25yUu35msrYnpxPc+L2hYS/PihXWzj6nEeoM4MVjIIJDwf9ba3lWRPBkvrAN44cs6n7U9LkccqsEaBFdGbxHPdwh5Eh4Ay3gvwuAWjeDj9zIFDlXdJgIiECIBiTAtwOSNNKeYIDSw2fEBrbiVk0eIeUJAWTZdqM6XXXaZU56J2eBFGO4lngqbLYQWNky88fRuRUySf/jDH1wwP96Y+wC8TMZMlvmbTiZzjtHEHBExhPyZ0BFH2CySLr6ebNYok7/yA5vyN9wqMFX0MWsQiBCXEIl8UEisd7CeYUNFzAtcpnBPIkAhdeMLgUB/nMKClQ9XvgiDNQ51pBwcvcmXBV8S5I2blRduEiHCTJ9ivWc+aY0Trv7aPYKFTe50qE2Ptg4bHJSree6Nq66CCCzva50j130Vq93ieOuwOidwLc/RB+ZlMYLwwO8+MG9zf+mCMs/dlC/C+JO+6OO8gSJg50477bRCLAUWLvR9BElMdxmnLQmHjF3ednHigD/BBrETM2TegPmAe76sLIpIj/FJPCjSpI7Ei8AlEUsaBBXmDhZhzEOMRcYe9zE/sGHnwoWJuQFTY4JxluPygXm98OJPjGPx2GJg3pxLXf1bt1v9K1fmwONWpHHTUrtg6cR3Bm2af9FXmWv5DsgXZVhUs6CPayDzcvS99tJsaV6py80rNRHNK+2VT5+3TiDIvNLwdm5ewV1E84q6VhkItLZOWdhvc/c9VkxMGDZXuP+wpubiex8reuZvXsQixLBG4CUq62lvjcK44EUv63ysxxFKeDmL9TmWtv5zXgzh4kRMSm8Jw16E7wms3flu5ruElzs8w97l5ptvlghThn6jJEUgKAGJMC2QY7Jk0kO1Rixh08abbzZMnFDB35kk8fNEIGFhzMbICwxYwrCA5p4rr7zSfc7kTTq81eTUFIJzEduFt5v8sAFjgsXCpfmmjY0WohATKfmwIcVHlM0b6bKQ53hKzBXbOqqazWR+TBgmf1yiEEh4g84Glw0lMXAQh3ysCtyy+OJgQmfjwIaQ2Bc8y5UvwjDRU28+818YPENsDMpIbBiuRIgwnI6Ua2Ob8pQtzbnXcDpSzcojvwomW1MXdMxl8rnlTh3o2j/3pvoE6zAsJ8BUd2iTBxtUfyoPIkD+qTz012KDyPmj1RlD9Enck1o6LckHqmZBw1zAQuioo45q0WeaOYBxjpiZL8K0dgoTdSI+E3ML4yxf2KGOCKXMAaSL8MI4ZOwSn4o5qLnpMOOYcR+2ZRnlpDxezIU1wgs/5NV2QO0mW/rB4xo3bfRu+DKnegEOayb6JS6wCP8tnZYE91KtwtI0AcVlXkkT03LXRfNKuQkr/aAEWptP/jv/Kyu8YkQY1ut8f/qLl0q8oOSlCieYIZLw8obAvAToJiguf+PFLi5GrA94icMmDQsX7mF9zRqd9TWWMayjeZHqY8KQ3vXXX+8EHl6EEkeOz1mj77rrrm79LUuYoL1Dz4lA+AQkwrTClM2aPxKOzR5RyDlZwR/diKsA8NgQMRmyeEZg4WLy5D5/agLm5mxcCN7Lm3cW0Sy+fbAtJlDefmOy2NIkz6KFN+uUhzfzxHPhGYLkskFlw4hw0t4pQ4ghbOzIxy/kWexTPmJh8H+EJX86EnXhi4SNKoFH+T91Iz/y8vVl44n7Fnz8CTHkxTOkSdkQonieZ3iWdOJ+BRkcca9Tpcq3FHekh041ywVhJRZOh3X2yhWlOEsixgyLmoULFtqS+iWuD3tRoLnVQGv1xI+a4HicRICYiMB54YUXOldDH5vJx1xhrAUVYRgznDyGQMLiCrcmLsYDlmSMQ9yOKAMba/6O0MtzLMCYTxgjiC+IOwgzWMawuPLlIj3+xoIMgdO7J5bSxl4YQHjxbmEIPP40mfbmmFLyzuKzzInM7QgvWDLRB1uKEeOtYPi8WOExzVzjMq8UypjxhajLxcuYsMYT8yJvxJkzeEHC/IIFKhs65gxeHrXUb3j5w0sW1jOsQRCmmQvD7mOaVwrtIbqvkgRam08QPriKEWGa14PvUwQXxiKHaLBm4XsfN2lcg1ibsJ7H9ZQDNjgEgPW4t6Dh5S8vXHnGn6rKehsXI8YxIQD4PuEER1yZ2Guwd8HKF9GH/3M6KXMCL5SwACZvTiottxtzJdtUeYtAnAkE2WdW5Qb6ihGtiqilP3bTb0yKeDQ1tyJQYIqIq1Jzy5fUVDLhFQkyOBJe5bIVv3HG+Jx7yhXWYcThOWuiETkLmNrAeeWfnsHCxgeERbjgTVJrFiH4ShPAloUNIqEXA5977jm3UGm+wGJc8jaJ4HW4D+Fy2FLaLHawbMHdzlvCUDkWTJj/Ul6C5uHDTVq8mWKBxWbJH82KhRrWNjxPWVgUsTnHzRCfbcRe8mADxz34k/PDZotNFAIMR2EHuSgfApc/HpwNkz+lCgGmHAGSg5Qzjc8gdtGu3gIRsZp+ymK8uSWMrGBW7AFxmFeK6ZfeEo9nvMVsMc+3di8iDHMUIgwbNOYdhD1cgtn0sbFrfrGZ4xncktkQIgLzlvyXv/ylC/JfqhCjeSWMllUaURJobT4JQ4ShHnzH+iOm8+uFi693vWYsejff/HsY4/mu1N7qnWf5Yc2QH1fGu7V6y1XS4m/88Df+JT1/7HWUnJWXCIjAVwSC7DMlwoTQe7BqIfYKmzMsSHTFj0CQwRG/WsSjRI2546o5Nrdm0BahFoiFPgsQHz9m2Qk9ecdckyGiC2IF1mj+5ADePCFitHbhBoQIg7seb6qwXGnJFYTNC77evIlicUNcFyzLuFjkILhivYKwgSUYmx+szfwmBzHFn3bE4otT0vxx91iRYQnjj45k4YSlBGn505GCAPXxGOCGtQ7p+pOpWloABslDz7RNAO749SN6YV3IG0o2wbQF/ZjTu/I3wvyfPpnllxfNiVZ6Xmmrhb2wSfsypvjxIgzjD6sTPkNcyz8Vjb8xLvPHJG3v/8445XPEUZ5jTvLBwsmDDSNB/9mkEbuO+5qPafoef6O/sXnj/8yRnIbIPNfcTbLQsax5pVBSui+OBFqbT8ISYeJYZ5VJBESgcgSC7DMlwoTQXixWeAuav/gKIVklESKBIIMjxOzTl1Tj0uVOgwq7gj6gLxsMxA82LljHdO7U2Wrrat3fgow3fwyzf9PUvNyMZfIkL/9G2Z+kVEgdEVQol78oZ/4bL388fCFptXcPdSFt5p78ALu+7GG5R7RXjqx/Tl/FDZT2QIChD3iXjbbY0L/Cjv2T+Lao4LxS17GuRZcihFlOAkQwpV2xREF0wXUZKxVOReENNGKtdwPCMo4LyzyC3iO0MC5xnUQ4xlWR0wqx5MNKjvlt0003da4G/B/3RwRd3pjzgod5iecQc+hjuD7Sf7DcI4YVbkpYW3mhj3mBI3QRqv29hfYNzSuFktJ9sSfQwnwiESb2raYCikAiCQTZZ0qESWRTq9DFEggyOIrNQ/eXhwCbAh9Uln/922CEFDY9pZral6fU4afKRsxbC3lxyrNA+AkS3Dj8UipFEUgGgULmFcYblmwcJ88JhrgSEmAbkeO73/2us8jD2o3PEGX4P3GiTjnlFCe0YMXC6Sm4FRGrhfsJyI0F1Omnn+6ElwMPPNBZvBBoE/dFrFc4JW3jjTd28SSIPYHwg8sTgfIfeugh52aESyTub3feeac7eQVBh4uyESNi/Pjxrlz+9LXWWkXzSjL6q0oZDgGJMOFwVCoiIALLEwiyz5QIo16UCQJBBkcmwCSokt48HssPfvJN/DHXR4RI4+WFFx9gl9+xqPGnoCFCZUWISmP7qk6VJdDWvMKcgvDB8bQE4CQQPsH0uZhzEE5w/eFIe8YkQe05SY1jagnEjaXKscceu8x9ibhQbAI5HQ1xhc9IE0EIMWXSpEnuFJVLL73UiTBYxpAeggunp5DX+eefb4cddpizlCE98sXlyAcHxWqHcnznO9+xoUOHtjo3aF6pbL9T7pUhIBGmMtyVqwiknUCQfaZEmLT3CtXPEQgyOIQuvgR8oEjvjoPLkHcFwuw/6QFocXvwrlOILz4+DhYvbLp0tHF8+6ZKllwCLc0ruPoR8BYrF8ROgmkjouByRGBu5h4EEsYk1i6c0HbMMcc4NyQsZ4jl4t3OEEgI2o2LECehEcwfCxbyJQ+sbI477ji74oorWhRhmAdwPyLwOBY2/B9LGo7K5fIiEGngitT80ryS3L6pkodDQCJMOByVigiIwPIEguwzJcKoF2WCQJDBkQkwKaik3zjhokPsBX7PP4o5KYKFPykKl6vmAXZ9nBdZvKSgw6oKiSDg55XJkyfbF1984YIrc3wsYgkxgHAnQpjh8qcjeREGCxdOSUOgOfroo51ATHoIL9xDTJlrrrnGTjzxRBfjBXEEAQb3IixhsJJpyRIGcZk4M7gkcYoawaAJIk5MGi7Spky4PPm/aV5JRHdTISMiIBEmItDKRgQyRiDIPlMiTMY6SVarG2RwZJVVkuvNm2J/whKCDBeWI2xIiB8Tt2C13hXCCy/8609Y8aegSHhJco9U2ZNMAHHk0Ucfda5Fhx9+uJtLCNCLRQtiCXFXGK+HHnrocpYwuCdxWhuxZMaMGeOOm+bELMQVrFZGjhxpZ599tnMZwqIF0RXXIk7MwgXJx4Rp7o5EXghBBN3l/1jjcI+f17AMxE2T+Y6ya15Jcu9T2ctBQCJMOagqTREQgSD7TIkw6jeZIBBkcGQCTEor6YNNsinhdJP804PYSFU6iK3fIOFqlH/6E3Fe2FzFTSxKaTdRtUSgXQKIJ//85z/dOMUahtOMiOPCaUX33HOPE18OPvhgF6OJE5IuuugiZ+FCQFwsXzjWvn///k6U6devnxNs2AieeeaZ7p7Bgwc7d1mC7xLrBQHlvPPOa9EShrkBofnaa6+1cePG2amnnmqrr776sjpQnvvuu8+5Q5GnP1VO80q7zawbMkJAIkxGGlrVFIGICQTZZ0qEibiRlF1lCAQZHJUpqXItBwHeDrOJwjoGQcZbmxBjhU1UFNYmCC+4J+S7TSEIUQbcpyS8lKPllaYIlE4AdyRcf5hDONkI4QPLug8//NDNJwTOZY5hfkGIwdKFeDDcjzsTAXoRcNZcc00n1uA2RNwXL8gwD6y99tou1gsiC3lxP0IKcV74HGsaLgTmBx54wN1D7BcEZT+vcO+MGTPcaUx9+/bVvFJ60yuFlBGQCJOyBlV1RCAmBILsMyXCxKTxVIzyEggyOMpbIqVeCQI+PoI/YYkNDwIIMVfY6PgAmmGVzceVYHPmA+ySHxsxL7xEIQCFVR+lIwIisCKBYucVRBiC6nKKEoF+C73mzZvn4tFg8TJq1CgbMWKE5pVC4ek+EcgRkAijbiACIlAOAkH2mRJhytESSjN2BIIMjthVQgUKlQAbJ2ImeAsZL8jgDlCKZQrpkhbpNg+w6+O8hFoRJSYCIhAbAoXMKx999JGLAXPkkUe6ODCFXKRLDBpcowjmu99++zkXJn9iGpY5ukRABNomgAgzd+7c0F+4iLsIiEC2CfCyFYvVYg4DkQiT7T6TmdpLhMlMUweqKK5CS74+leirGC3V1rnLV9YxhQoyXnjxcV6auzzJ3ShQ0+ghEUgsgdbmFeYU3JhwP2pvwZY/ryDqIhzjqsQPz2peSWz3UMErQAARhnHpTw+rQBGUpQiIQAoJEPcNF+L2vtPzqy4RJoUdQVVakYBEGPWKQgkQX4GNDmIK/zKh+hOWEFa8+5AP/stmis0R4g0Xb6Zxb2KjJVejQqnrPhFINwHNK+luX9UuGQTkjpSMdlIpRSBpBILsMyXCJK2VVd5ABIIMjkAZ6aHUEPDHRyPGILKwicLkH5EFMQbRhc+4D5HGx3lBeJH4kppuoIqIQKgENK+EilOJiUBRBCTCFIVLN4uACBRIIMg+MxQRZtq0aS5Cvy4RiCsBrBU4DrQYM7G41kXlip4AGyf6EJYx8+fNtoZFX1ptbs7r1r2XdereR/7l0TeJchSBxBNoaV5hLdVV80ri21YViCcBiTDxbBeVSgSSTqAiIgzQ8FnWJQJxJyABJu4tFP/yNS2aa0tevtLq33/Eqpoarabfula36VFW3X+D+BdeJRQBEYglgZbnlR/n5pXhsSyvCiUCSSUgESapLadyi0C8CVRMhIk3FpVOBERABMIg0GT1L19h9eP/aZYTYNyVcz2qXmUz67jTb6yqc98wMlEaIiACmSLQ8rxSk5tX6jSvZKonqLLlJyARpvyMlYMIZJGARJgstrrqLAIiEAmBpsX/tcWPnG6N015YPr+6rtZxtz8amyZdIiACIlAMAeaVJbl5ZWmzeaUqN6/UaV4pBqXuFYF2CUiEaReRbhABEQhAQCJMAGh6RAREQAQKIfCVCHNaToR5cfnbO/awjrucYzWDtigkGd0jAiIgAssItDavVOXmlTrNK+opIhAqAYkwoeJUYiIgAl8TkAijriACIiACZSRQP/4fX7kjLV2yLJeaVbe0uh3OsKou/cqYs5IWARFIKwHNK2ltWdUrbgQkwsStRVQeEUgHAYkw6WhH1UIERCCmBJoWzrb6Cdfa0vcfzsWFWWpVvdew2s2OtpoBG8W0xCqWCIhA3An4eaVh4l25eaXJBeSty80r1ZpX4t50Kl/CCEiESViDqbgikBACEmES0lAqpgiIQIIJNDZY05L5uQo0mVV3sKq6bgmujIouAiIQCwK5eaX++b9a48JZVrftLzWvxKJRVIi0EZAIk7YWVX1EIB4EJMLEox1UChEQAREQAREQAREoikD9S3+3pnnTrW7ns4p6TjeLgAgURkAiTGGcdJcIiEBxBCTCFMdLd4uACIiACIiACIhALAhIhIlFM6gQKSYgESbFjauqiUAFCUiEqSB8ZS0CIpAdArgjVVVXm3XonJ1Kq6YiIAJlJdDw6rXWOHeq1W1/WlnzUeIikFUCEmGy2vKqtwiUl4BEmPLyVeoiIAIi4AjUv/IPI5hm3Ta/EBEREAERCIdA/QJryv1UdVkpnPSUigiIwHIEJMKoQ4iACJSDgESYclBVmiIgAiLQjED9y1fk3lhPsY6K3aC+IQIiIAIiIAKJICARJhHNpEKKQOIISIRJXJOpwCIgAkkk0DDxHmuc8YrV7fh/SSy+yiwCIiACIiACmSMgESZzTa4Ki0AkBCTCRIJZmYiACGSdQMOk+6xx+ksSYbLeEVR/EQiTwNLFuZPvm3KxpjqFmarSEgER+JqARBh1BREQgXIQkAhTDqpKUwREQASaEZAIoy4hAiIQNoGlHzxqjZ9PtNrNjws7aaUnAiKQIxBUhJk7d669/vrrtnhxTij9+qqpqbGBAwfa6quvbnV1dbZo0SKbOHGirbnmmta1a9d2eVMW0ujSpYu7d968efbOO+/Y/PnzbZNNNrFevXq1m4ZuEAERiAcBiTDxaAeVQgREIOUEJMKkvIFVPRGoAAHNKxWAriwzRSCICNOUs0579dVX7Te/+Y117NjRCS7+Wrp0qe2yyy526KGHGpuwCy+80E488UQnxLR1ffHFF3b11Vfb7rvvbhtssIETd/75z3/aCy+8YGuvvbb94Ac/sJVXXjlTbaPKikCSCUiESXLrqewiIAKJIaDNUmKaSgUVgcQQ0LySmKZSQRNKoBQR5tJLL3UCy2qrreZqjwDz9NNP2y233GK/+tWvrFOnTgWLMNOnT7dzzjnHjj32WNtoo41szpw5dtZZZ9muu+5qO++8sxN6qqurE0pZxRaB7BGQCJO9NleNRUAEKkBAm6UKQFeWIpByAppXUt7Aql7FCZQiwvz973+3U045xbkf+Wvq1Kl25pln2iGHHOL+nm8Jg1vRyy+/7Kxb+P/gwYPtW9/6lvXu3dtuvPFGu/nmm2348OFOdHn//fft/vvvtzXWWMN22GEH23PPPW3mzJn2+OOP25QpU6x///5OoBk2bJjL+oknnnDCDRY0CDpY40yYMMHWXXddmzZtmr311lvOGoe0J0+ebM8884xzkdpnn31cOXSJgAiES0AiTLg8lZoIiIAItEig4b2HrPGTV61um1+IkAiIgAiEQkAiTCgYlYgItEogTBGmoaHBWcL84x//sJNPPtl69OixTIQZOnSoE1peeukl23LLLa2qqsoJMn369LGjjz7ann/+eeeOhHgyatQoQ8y54YYbbLPNNnMiTOfOnQ3RZ9CgQU7cee+995zYguXMOuusY9dff70TbXbccUfntoRL00UXXZSL691kI0aMsNraWnvqqaeceIPlDvFlKAsxbI4//vhlcWjUVURABMIhIBEmHI5KRQREQATaJNC04HNrWjzPqnt/80ZMyERABESgFAISYUqhp2dFoH0CpYgwv//9750ogtsRF+5IbLxGjhxpRx111HIxYfr27WtXXHGFbb311rbVVlu5e5977jln/fK///u/Tiw5++yz7bjjjlvmjkTMmQMOOMCJMldeeaWzdMH9qVu3brZgwQK77LLL3HOIOLfeequLU4MVTs+ePd29p59+uq2//vquLLgykca7775rp556qlEe8r/uuuvs17/+tQ0YMKB9WLpDBESgYAISYQpGpRtFQAREQAREQAREID4EJMLEpy1UknQSKEWE+d3vfudEDn9qEW5FG264oQuki1CCS5F3R8KtCLegSZMm2aeffur+j1sQ7kOkw9WaCIOo86c//cmdkIT7ECcocT300EP2wAMP2GmnnWb33HOPzZo1y0466SQXPwYRBnEFd6dvf/vbTvTBsmb27Nk2ZswYd89rr71mxLVBBFpllVXS2cCqlQhUiIBEmAqBV7YiIAIiIAIiIAIiUAoBiTCl0NOzItA+gVJEmJZiwuTnmC/CINRgucKx04gquCEhlDz66KNOBGlPhPnjH//onssXYcaOHetEGCxeEGFID9ciL8J4S5rtt99+mQjDKUyIMLgnSYRpv3/oDhEISkAiTFByek4EREAEREAEREAEKkhg6fuPWOOnr1ntqJ9VsBTKWgTSSyAqEYZAvIg2uBMRwwU3ojvuuMMQUjgFiRgxWMLgWkQMFwQVL6IQQwZXprlz5zpLl+7du7vAvpdccolLBxem2267TSJMerupapZAAhJhEthoKrIIiIAIiIAIiIAINC38wmzJf62q5xDBEAERKAOBqEQYrFP+/Oc/W79+/VzQXFySsERBTCGOC5Yyv/3tb93n++67r/sXUYaYMNttt51NnDjRLr/8cvd3XJs++ugj5+704x//2MWQITCvLGHK0EGUpAgEJCARJiA4PSYCIiACIiACIiACIiACIpBeAkFFmA8//NC5EuEehDDS0jVjxgznLrTHHnu4U4gQXYjjQhyYjTfe2Ikpzz77rDvRiNOTxo0bZ4899phts8027lSku+66yzbffHN3zDQWLx988IF7/rPPPnPHSuNm5tHpTQAAIABJREFUxElHfPbkk0/awoULXQwYYsYg7mBp459vbGx0pyPx99GjR1uHDh2ciPPwww/bQQcd5NyjdImACIRHQCJMeCyVkgiIgAiIgAiIgAiIgAiIQEoIBBFhUlJ1VUMERKCMBCTClBGukhYBERABERABERCBshFoWGxNjUusqq572bJQwiKQZQISYbLc+qq7CJSPgESY8rFVyiIgAhkkgNlvfX29M/8t5KqurnanEOgSAREQgWIJLJ3yrDXOmmS1I35Y7KO6XwREoAACEmEKgKRbREAEiiYgEaZoZHpABERABFongD81ftQIMf5CkOHYx4aGBudXja+1v7p16+b8vvHR1iUCIiACxRDQEdXF0NK9IlA8AYkwxTPTEyIgAu0TkAjTPiPdIQIiIAKBCSC8MNG++eabtvLKK9taa61lnTp1csdN6hIBERCBUghIhCmFnp4VgfYJSIRpn5HuEAERKJ6ARJjimekJERABESiIACccTJo0yR01iWUMVjAIMN27d7f+/ftb165dJcYURFI3iYAItERAIoz6hQiUl4BEmPLyVeoikFUCEmGy2vKqtwiIQNkIILjMmjXLOKISV6TVV1/dpk6dah07drRhw4bZ9OnTnXvSSiut5I6PlCtS2ZpCCYtAqglIhEl186pyMSAgESYGjaAiiEAKCUiESWGjqkoiIAKVIzB79mybPHmys3BZZZVVbMCAAUbw3QkTJjgRZvjw4a5w8+bNc1YyiDTrrbeeERtGlwiIgAgUQ0AiTDG0dK8IFE9AIkzxzPSECIhA+wQkwrTPSHeIgAiIQMEE5s6dawsXLrQePXoss3BBaJkzZ477nb/7i78jxuCe1Llz54Lz0I0iIAIiAAGJMOoHIlBeAhJhystXqYtAVglIhMlqy6veIiACZSOwYMECe+WVV5yVC3FfWroQX4gRs8EGG8gdqWwtoYRFIN0EJMKku31Vu8oTkAhT+TZQCUQgjQQkwqSxVVUnERCBihJAhHnppZds6NChNmTIkBbL8sYbbxiBe0eMGCERpqKtpcxFILkElr431pZOf8XqtvtVciuhkotAjAmEIcIsWbLExo4da5yWqEsERCB9BIjxuO222xZVMYkwReHSzSIgAiLQPgGJMO0z0h0iIAKlE2ha9IU1LZxj1b2HlZ6YUhABEViBQBgiDGsCRJjRo0eLsAiIQMoIzJ8/35555hnbb7/9iqqZRJiicOlmERABEWifgBdhBg0aZKuuumqLD0ycONEdWy1LmPZ56g4REAEREAERqASBMEWYYjdplaiv8hQBESiOgBdZix3fEmGK46y7RUAERKBdAkzIzz//vDshKT8Qb/6DHFHds2dP22STTeSO1C5R3SACIiACIiAC0ROQCBM9c+UoAkkiIBEmSa2lsoqACKSawNKlSw2RhaC8rZ16xClKjY2N1qtXLyfW6BIBERCBogksrc890mRWU1f0o3pABESgfQISYdpnpDtEIMsEJMJkufVVdxEQAREQAREQgcwRWDr1WWuc/Z7VbvS9zNVdFRaBKAhIhImCsvIQgeQSkAiT3LZTyUVABERABERABESgaAI6orpoZHpABIoiIBGmKFy6WQQyR0AiTOaaXBUWAREQAREQARHIMgGJMFlufdU9CgISYaKgrDxEILkEJMIkt+1UchEQgSwQcLEbGnOxGzpmobaqowiIQAQEJMJEAFlZZJqARJhMN78qLwLtEpAI0y4i3SACIiAClSOw9ONncrEb3rXaET+sXCGUswiIQKoISIRJVXOqMjEkIBEmho2iIolAjAhIhIlRY6goIiACItCcgDZL6hMiIAJhE9C8EjZRpScCyxOQCKMeIQIi0BYBiTDqHyIgAiIQYwLaLMW4cVQ0EUgoAc0rCW04FTsxBCTCJKapVFARCIXA1KlTrV+/ftax44rhA5gPampqrEuXLsvykggTCnYlIgIiIALlIaDNUnm4KlURyDIBzStZbn3VPQoCEmGioKw8RCAeBGbMmGG//OUvbeTIkTZmzBirq6tzBWtqarIpU6bYH/7wB9tyyy3t0EMPXfaZRJh4tJ1KIQIiIAItEtBmSR1DBEQgbAIN7z5ojTMmWN12vwo7aaUnAiKQIyARRt1ABLJDoKGhwS655BK76KKL7JhjjnFCTNeuXQ3rmJ///Oc2efJku/jii23rrbe2qqoqB0YiTHb6h2oqAiKQQAISYRLYaCqyCMScQNP8z6xp0Ryr7rt2zEuq4olAMglIhElmu6nUIhCUwPz58+1vf/ubXX755Xb88cfbPvvsY2eddZa98cYbzhJml112serq6mXJS4QJSlrPiYAIiEAEBCTCRABZWYiACIiACIhAiAQkwoQIU0mJQEIILFmyxAkx/HTu3Nlqa2vtvPPOsx122GE5AYbqSIRJSKOqmCIgAtkkUD/hmtwR1e9Zx53PyiYA1VoEREAEREAEEkZAIkzCGkzFFYGQCHiLmDvvvNPOPPPMFSxgfDYSYUICrmREQAREoBwElrx4qTX9d4ZEmHLAVZoikFUCS5eYNTaY1X5zUkNWUajeIlAOAhJhykFVaYpAMghgETNr1iwbMGDAChYwEmGS0YYqpQiIQMYJNM5+16x+oVUP2DDjJFR9ERCBsAjg5ti0YKbVjvhRWEkqHREQgTwCEmHUHURABNoiIEsY9Q8REAEREAEREAERyBCB+pf+bk3zplud3Bwz1OqqapQEJMJESVt5iUDyCEiESV6bqcQiIAIiIAIiIAIiEJiARJjA6PSgCBREQCJMQZh0kwhkloBEmMw2vSouAiKQCAK52A1NudgNVYrdkIjmUiFFIAkEJMIkoZVUxiQTkAiT5NZT2UWg/AQkwpSfsXIQAREQgYIINC2Zb9a0dLl7l37wqDV9+al12PDQvL9XmVVVfSXMVFUXlLZuEgERyCaBluaVhgnXWuO8qVa3/WmaV7LZLVTrMhOQCFNmwEpeBBJOQCJMwhtQxRcBEUgJgYaFVv/q9dbw3kPLVahp8TwXmLeq24Bv/l5TZzW5QL0E1Vzu7ylBoWqIgAiERKCVecVy80pTs3mlKjevEABc80pI7JVMpglIhMl086vyItAuAYkw7SLSDSIgAiIQBYEma5zzkdU//UdbOmN8mxlW91nD6rb+uVWvPDKKgikPERCBxBLQvJLYplPBE01AIkyim0+FF4GyE5AIU3bEykAEREAECifAkdT1487LCTETcg81rfBgVdf+Vrv5cdZhzd3lilQ4Vt0pApkmoHkl082vyleAgESYCkBXliKQIAISYRLUWCqqCIhABgg0NeWOjp1iS54935ZOfS6nw3wjxFT3WNVqNzvaatbYLQciFxdGlwiIgAgURCBnETN3itVrXimIlm4SgVIJSIQplaCeF4F0E5AIk+72Ve1EQAQSSqApt2Fa8mzOImbqCzkhptGqew+z2i2Ot5pVtzKr7pDQWqnYIiAClSTwlRCjeaWSbaC8s0EgLBHm9ttvt0022SQb0FRLEcgQAUSYjz/+2A466KCiav3JJ59Yv379rKampuDnqppyV8F360YREIGyEVi6dPkTeMqWkRIugUDOIiZ3KtKS5y7KWcZM/VqA2SKXnixgSoBa1kercidWVVdn97QqzStl7V4hJf71vPL81/PK5gi7mldCgluWZLI+r5QFagSJhiHC1NfX26RJk3IGsdo+RdBkykIEIifQo0cPGzJkSFH5SoQpCpduFoH4EGCjNG3aNKurq4tPoVSSVglULfmvVS+ebUu7DVYMmJj3EzZLAwbknWIV8/KGWTzNK2HSLH9azCtVi2ZbY3fNK+WnXVoOWZ5XSiNX2afDEGEqWwPlLgIiEEcCEmHi2CoqkwgUQIDN0syZM23gwIEF3K1bREAECiGQ9XGV9foX0kd0jwgUS0Djqlhi8blfIkx82kIlEYE0EZAIk6bWVF0yRUCLukw1tyobEYGsj6us1z+ibqZsMkZA4yq5DS4RJrltp5KLQJwJSISJc+uobCLQBgEt6tQ9RCB8AlkfV1mvf/g9SimKgJnGVXJ7gUSY5LadSi4CcSYgESbOraOyiYBEGPUBEYiUQNY3S1mvf6SdTZllhoDGVXKbWiJMcttOJReBOBOQCBPn1lHZREAijPqACERKIOubpazXP9LOpswyQ0DjKrlNLREmuW2nkotAnAlIhIlz66hsIiARRn1ABCIlkPXNUtbrH2lnU2aZIaBxldymlgiT3LZTyUUgzgQkwsS5dVQ2EZAIoz4gApESyPpmKev1j7SzKbPMENC4Sm5TS4RJbtup5CIQZwISYeLcOiqbCEiEUR8QgUgJZH2zlPX6R9rZlFlmCGhcJbepJcIkt+1UchGIMwGJMHFuHZVNBCTCqA+IQKQEsr5Zynr9I+1syiwzBDSuktvUEmGS23YquQjEmYBEmDi3jsomAhJh1AdEIFICWd8sZb3+kXY2ZZYZAhpXyW1qiTDJbTuVXATiTEAiTJxbR2UTAYkw6gMiECmBrG+Wsl7/SDubMssMAY2r5Da1RJjktp1KLgJxJiARJs6to7KJQJlFmIaGBnvnnXesd+/eNmjQoGW51dfX29SpU90P/+/Tp4+tscYa1q1bN6uqqmq3XT7++GNbtGiRe6ampqbV+5uamox7lyxZ4u6trq5uN23dIALlJJD1zVIY9de8Us4eqrSTSCCMcZXEeqehzBJh0tCKqoMIxI+ARJj4tYlKJAIFESh1UYcA8vrrr9tf/vIX23fffW3//fd3+S5cuND+/e9/2yOPPGILFiywDh06GHkNGzbMDj/8cFtzzTXbLB8bsOuuu87mzJljxx9/vNXV1bV6P+necMMN9sUXX9iYMWOstra2oLrrJhEoF4FSx1W5yhVVuqXWX/NKVC2lfJJEoNRxlaS6pq2sEmHS1qKqjwjEg4BEmHi0g0ohAkUTKHVRN3v2bLvooovspZdesh//+Me23377uTK88MILdtlll9mPfvQj22ijjZx1yueff25XX321DRgwwN3bsWPHVssrEaboptQDMSJQ6riKUVUCFaXU+mteCYRdD6WcQKnjKuV4Yl09iTCxbh4VTgQSS0AiTGKbTgXPOoFSFnWLFy+2O++807kCzZo1y0aNGuWsYbgefPBBu+uuu+z//u//bODAgcswT5kyxVm3rLfees7FCOuVp59+2t544w3r3Lmzbb/99rbxxhu7+/MtYbBumTZtmj3xxBP23nvvWb9+/Wz06NG2+uqrW2Nj4zJLmGOPPdZee+01VyaEn3fffdf22GMPGz58eNabWvWPkEAp4yrCYpYtq1Lqr3mlbM2ihBNOoJRxlfCqJ774EmES34SqgAjEkoBEmFg2iwolAu0TKGVR9+KLLzp3I4SXW2+91YknXoR5//337dxzz7VVV13VttpqK/fvKqusslw8GASYv/71rzZ//nwbMWKEE2fefvttO+CAA5ygg4uRd0dCgOHevn372tprr22IOUw83rXpxhtvdILOMcccY2PHjjV+33LLLW3w4MG2xRZb2JAhQ9qHoTtEICQCpYyrkIpQ0WRKqb/mlYo2nTKPMYFSxlWMq5WJokmEyUQzq5IiEDkBiTCRI1eGIhAOgaCLuk8//dSuv/56J3BssskmLiZMvghDuggxTz75pD3//PPLAvOuv/76ts8++9hKK63kPiNuzAknnOBEGp75z3/+Yy+//LL97Gc/s3vuuceJMAgriDxYwJx44onWvXt3F2cG1yZcmo444gi77bbblhNhsMTBCgfXJ10iEDWBoOMq6nKWK7+g9de8Uq4WUbppIBB0XKWh7kmvQykiDDGysBDkhwsrYiyH/YEFWAOzJuratWtBhx4knaXKLwIi8A0BiTDqDSKQUAJBFnUsBBBgcPc55JBDjAXCeeedt5wI43EQ24UTjogHwxtuhJfVVlvNxYTBXemOO+5wMWP8YgK3Ju49++yz7amnnnIiDHFlLrjgAudaREBfTlYiT6xhsIw5/fTT7e67715OhJkwYYL94he/sC5duiS0ZVTsJBMIMq6SXN/mZQ9Sf80raeoBqks5CAQZV+Uoh9IsnkBQEQaBBQth1ji4WnPSJOueHXfc0blkc+rkRx99ZFdddZUdeeSRNnTo0OILpydEQAQSS0AiTGKbTgXPOoEgizrED0QS3rr06NHDEFqI6YJ1y+67727f+ta3nNjSq1cv22abbZa9mUE4GT9+vFss/PSnP7Vx48bZs88+6yxjfJBejpnmJKTNNtvMCTSIMLgcIcIgvuSnxwlM/fv3d5Y4N91003IiDCc2nXzyye5tkS4RiJpAkHEVdRnLmV+Q+mteKWeLKO00EAgyrtJQ7zTUIagIgys2rt3E1tt2223d+oiXVQ888ICLrcf6aPr06XbhhRc6S+H2Tp5MA0vVQQRE4BsCEmHUG0QgoQSCLOrmzp3rTkPC/JWLN9j333+/ewNDEFwsW4jJgjCDqxGWL1jN8AaHGDK4GZ1yyik2adIkZw2DxQrPUhbck3Bj4o0Ob368O9K//vUvZ/nyk5/8xIk7CDBXXnml9ezZ0w4++GC75ZZbJMIktA+msdhBxlWaOASpv+aVNPUA1aUcBIKMq3KUQ2kWTyCICMOLK15UER+PNRNrKS6sY1iDYR3MiZRswhBhcN1mncXpcrh4Dxs2zDp06OCe4QXXhx9+6AQbXnqttdZazqKGi4MMyAuLZO7h5dU666zjXL91iYAIxJuARJh4t49KJwKtEghjUUdg3ebuSJjHXnLJJU4YISguVjNssviyx1qG4LssSi6//HJ3D/FkSOe5556zvfbay7797W87IccH5uW5v/3tb87yZoMNNnCCzMSJE92ig6C+LFLyA/PKEkadvpIEwhhXlSx/qXmHUX/NK6W2gp5PG4EwxlXamCSlPkFEGOo2efJkF3Nvu+22s5133tm9eEJE4cWWv3hxdeaZZ7rDD7iwTkaIOeyww2yHHXZwAgyWxbh4I6zwOa7a3/ve99xBB1gSs55ChOEF15dffuksan74wx86dyddIiAC8SUgESa+baOSiUCbBMJY1GEJc9999zmxBTcifyGK4HL06quvOquZlVde2S0keMPi3Y+459FHH3U+zywKcDdCkOHtDS5NLAhwb2LBgVkuljQIMhxRzeKCtzl8xuKCTduuu+5qxIPhXsQcjrbWJQJREwhjXEVd5jDzC6P+mlfCbBGllQYCYYyrNHBIYh2CijC0+eOPP+7WWMTL47AB1ki4IvFCqlOnTs56+LTTTnOWyP6EymuuucatiXDL5rADXlQRi2/dddd1f/efY12MBfITTzzh3MQRZVg/XXzxxS7mDGn6mH1J5K4yi0DaCUiESXsLq36pJaBFXWqbVhWrIIGsj6us17+CXU9Zp5iAxlVyGzeoCEONcRXCkhixZerUqc7V+80333QvorBmYRNG3JjjjjvOuYPTTxBtXnjhBft//+//OSuYGTNmOEEG0Yb0eDlGfD7+xgsvPkeE4XNcmq699lqbOXPmsr8ll7xKLgLpJiARJt3tq9qlmIAWdSluXFWtYgSyPq6yXv+KdTxlnGoCGlfJbd6gIswHH3zgKu1j6/njqokVc91119mpp57qLFXyA/N6Eebpp592sWRuvvlmJ6wcf/zxy6yDcXPC2uWkk06y559/3p1iifsRVsg+Ph8uSj//+c+dMKNLBEQgngQkwsSzXVQqEWiXgBZ17SLSDSJQNIGsj6us17/oDqMHRKAAAhpXBUCK6S1BRBiEE2LjvfPOO+4AAx9IFyGGoLznn3++E1YIpNuaCINI8/DDDzvLFwQZ4urxPC7cWMiQLi7hiD38n/h9CDKXXXaZE2yOOuoouXXHtE+pWCIAAYkw6gcikFACWtQltOFU7FgTyPq4ynr9Y905VbjEEtC4SmzTuYMIuIo5cQixhHh5CCycdLTFFltYt27d3IEFuBAhviDCEIS3NRHm9NNPt08//dQuuOAC22qrrWzzzTd3999+++0uPsz3v/994/RJTq089NBDbfjw4fbWW2/ZY4895o6/HjlypFVVVSUXvEouAiknIBEm5Q2s6qWXgBZ16W1b1axyBLI+rrJe/8r1POWcZgIaV8lt3SAiDLWlzbGEefDBB5cdcsAhBqNGjXJBeDkRidMoOWnyiCOOsDXWWMM9g/ULp00S5wXrlldeecXuvfdeJ8jgvoSgs/fee1uvXr3s+uuvd8LL4MGDXV4cnMDBBttuu62sYJLb5VTyjBCQCJORhlY100dAi7r0talqVHkCWR9XWa9/5XugSpBGAhpXyW3VoCKMrzGuSbgJ0Qc4EZI4LXV1de5jLGZIH3GGmC5evOF0SQQYb8nC85w6x+9Y0eBuRHqcnMRJlZyexPHViDSklX8MdnLJq+QikG4CEmHS3b6qXYoJaFGX4sZV1SpGIOvjKuv1r1jHU8apJqBxldzmLVWEKVfN80WYMWPGyPKlXKCVrgiUiYBEmDKBVbIiUG4CWtSVm7DSzyKBrI+rrNc/i31edS4/AY2r8jMuVw5xFWEaGxtdkN758+fb6NGjl1nSlIuD0hUBEQiXgESYcHkqNRGIjIAWdZGhVkYZIpD1cZX1+meoq6uqERLQuIoQdshZxVWECbmaSk4ERCBiAhJhIgau7EQgLAJa1IVFUumIwDcEsj6usl5/jQURKAcBjatyUI0mTYkw0XBWLiKQNQISYbLW4qpvaghoUZeaplRFYkQg6+Mq6/WPUVdUUVJEQOMquY0pESa5baeSi0CcCUiEiXPrqGwi0AYBFnUzZsywnj17ipMIiEBIBBhXnEyx8sorh5RispLRvJKs9lJpk0Eg6/NKMlqp5VJKhEly66nsIhBfAhJh4ts2KpkItElAmyV1EBEInwDBDhFhBg4cGH7iCUhR80oCGklFTByBrM8riWuwvAJLhEly66nsIhBfAhJh4ts2KpkItCvCzJw5M7ObRXUPESgHgay7DWS9/uXoU0pTBDSuktsHJMIkt+1UchGIMwGJMHFuHZVNBNogoEWduocIhE8g6+Mq6/UPv0cpRREw07hKbi8IS4RZsGBBciGo5CIgAm0S6NChg9XV1RVFSSJMUbh0swjEh4AWdfFpC5UkPQSyPq6yXv/09GTVJE4ENK7i1BrFlSUMEQYB5qabbrK+ffsWl7nuFgERSAQBRJi99tqrqLJKhCkKl24WgfgQ0KIuPm2hkqSHQNbHVdbrn56erJrEiYDGVZxao7iyhCXCjB071vbbb7/iMtfdIiACsSeAyBpkfEuEiX3TqoAi0DIBLerUM0QgfAJZH1dZr3/4PUopioDckZLcByTCJLn1VHYRKD8BiTDlZ6wcRCBWBLRZilVzqDApIZD1cZX1+qekG6saMSOgcRWzBimiOBJhioClW0UggwQkwmSw0VXlbBPQoi7b7a/al4dA1sdV1utfnl6lVLNOQOMquT1AIkxy204lF4EoCEiEiYKy8hCBGBHQoi5GjaGipIZA1sdV1uufmo6sisSKgMZVrJqjqMJIhCkKl24WgcwRkAiTuSZXhbNOQIu6rPcA1b8cBLI+rrJe/3L0KaUpAhpXye0DEmGS23YquQhEQUAiTBSUlYcIxIiAFnUxagwVJTUEsj6usl7/1HRkVSRWBDSuYtUcRRVGIkxRuHSzCGSOgESYzDW5Kpx1AlrUZb0HqP7lIJD1cZX1+pejTylNEdC4Sm4fkAiT3LZTyUUgCgISYaKgrDxEIEYEtKiLUWOoKKkhkPVxlfX6p6YjqyKxIqBxFavmKKowEmGKwqWbRSBzBCTCZK7JVeGsE9CiLus9QPUvB4Gsj6us178cfUppioDGVXL7gESY5LadSi4CURCQCBMFZeUhAjEioEVdjBpDRUkNgayPq6zXPzUdWRWJFQGNq1g1R1GFkQhTFC7dLAKJJtDQ0GDjxo2ztdde2wYOHLhcXRobG+2dd96xHj162KqrrrrsM4kwiW5yFV4EiiegRV3xzPSECLRHIOvjKuv1b69/6HMRCEJA4yoItXg8IxEmHu2gUohAFAQ+/vhjO+GEE6x3797229/+1gYNGmRVVVWGAPPII4/YqaeeakcddZQdeeSR1qFDB1ckiTBRtIzyEIEYEdCiLkaNoaKkhkDWx1XW65+ajqyKxIqAxlWsmqOowkiEKQqXbhaBRBNAbHniiSfsF7/4ha255pp27rnnOquX/L+dd955soRJdCur8CJQIgEt6koEqMdFoAUCWR9XWa+/BoUIlIOAxlU5qEaTpkSYaDgrFxGICwFv9fLLX/7SNtxwQ9ttt93s/PPPt+HDh9vZZ59tgwcPdtYx/pIlTFxaTuUQgYgIaFEXEegis2Hyrq+vt3nz5tmMGTOMBRwTND9cnTt3ti5duli3bt1slVVWsV69elltbe1yE3qRWer2EAlkfVxlvf4hdqVQk9K8EirOyBPTuIoceWgZSoQJDaUSEoHEEMi3iMFFaeedd7bmFjASYRLTnCqoCIRLQIu6cHmGkdonn3xi7733nn300Ue2aNEiJ7Z0797d/Yv40tTUZAsXLnSCzPz5892//H211VazoUOH2oABA6y6ujqMoiiNgASyPq6yXv+A3aasj2leKSveSBLXuIoEc1kykQhTFqxKVARiT8BbxDz66KN23HHHrWABIxEm9k2oAopAeQhoUVcersWmSjvMmTPHXn/9dXv//fdtpZVWsmHDhrmo6gT28oG7mqeLtcwXX3xhn332mX344Yf2+eefOzFmo402sj59+sgyptiGCOn+rI+rrNc/pG5UcjKaV0pGGKsENK5i1RxFFUYiTFG4dLMIpIoAQgzzNxbrrV1yR0pVk6syItA+AS3q2mdU7jsQUl555RV76623rH///rbxxhs7a5a2JuuWysSReNOnT7fx48c7QQe/U8SYYtMpd32zkH7Wx1XW6x+HPq55JQ6tEG4ZNK7C5RllahJhoqStvEQgeQQkwiSvzVRiESiJgBZ1JeEr+WF/Ugg7AAAgAElEQVQm3RdffNE++OAD22qrrWyNNdYoWTRh80V6zz77rIsXs+222zp3JV3REcj6uMp6/aPraS3npHml0i1Qnvw1rsrDNYpUJcJEQVl5iEByCUiESW7bqeQiEIiAFnWBsIXyEBPuQw89ZIsXL7YddtjBWcHkR0ovNRNiQDz55JMungzpE1NGVzQEsj6usl7/aHpZ6wKM5pVKtkD58ta4Kh/bcqcsEabchJW+CCSbgESYZLefSi8CRRPQoq5oZKE8gPDy9NNP2+zZs23XXXd1cV/KcZH+ww8/bD169LAdd9zROnXqVI5slGYzAlkfV1mvf6UGhOaVSpGPJl+Nq2g4lyMXiTDloKo0RSA9BCTCpKctVRMRKIiAFnUFYQr1JpiPGzfOOK5u9OjR1q9fv1DTb57YzJkzbezYsc7VabPNNms1yG9ZC5GxxLM+rrJe/0p0d80rlaAebZ4aV9HyDjM3iTBh0lRaIpA+AhJh0temqpEItElAi7roOwjiyyOPPGI77bSTO1I6ios8sYjZZZdd3OlJuspLIOvjKuv1L2/vajl1zSuVoB5tnhpX0fIOMzeJMGHSVFoikD4CEmHS16aqkQhIhIlRH+AEo/vvv9+5H2299dZWU1MTSenI96mnnnKnJu25555WV1cXSb5ZzSTrm6Ws1z/qfq95JWrilclP46oy3MPIVSJMGBSVhgikl4BEmPS2rWomAi0S0KIu2o4xefJke+aZZ2yvvfaylVZaKdLMiQ9zzz33uNOScE3SVT4CWR9XWa9/+XpWyylrXomaeGXy07iqDPcwcpUIEwZFpSEC6SUgESa9bauaiYBEmAr3ARbQd955pw0YMMC22WabUE9CKrRqxKIhRgwiUFRWOIWWLU33ZX2zlPX6R9mXNa9ESbuyeWlcVZZ/KblLhCmFnp4VgfQTkAiT/jZWDUVgOQJa1EXXIRA/sERBAOE46kIuJuV///vf1qdPH3eKUm1trXts4cKFdu+997pTj4gtU6h7EWW4++67bd99943cEqeQ+qblnqyPq6zXP8p+rHklStqVzUvjqrL8S8k9LBHmpptusr59+5ZSFD0rAiIQQwK4FVdVVdmBBx5YVOk++eQTd8BHMS9Wq5pyV1G56GYREIHQCWhRFzrSVhN888037Y033rD999+/YNGE9vnPf/7jhJgTTzzRNtxwQ2tsbLQHH3zQHn/8cTvqqKNs7bXXLrgSHGF7++2328Ybb2zrr79+RaxxCi5sgm/M+rjKev2j7LqaV6KkXdm8NK4qy7+U3MMQYcifFzO6REAE0kugS5cuRVVOIkxRuHSzCMSHgBZ10bQFnB966CHr1q2bC8hbXV1dcMbz58+3q666yj799FP7yU9+Yp999pldccUVLsAu1jHFpOWPsWVBuNtuuy2zrCm4MLqxIAJZH1dZr39BnSSEmzSvhAAxQUloXCWosZoVNSwRJrkEVHIREIFyEJAIUw6qSlMEIiCgRV0EkHNZLFmyxMWDwZJlvfXWKzrTjz76yP70pz/Z6quv7sSYNddc0773ve9ZsYo5Gb/99tv22muvFWWRU3SBM/5A1sdV1usfVffXvBIV6Xjko3EVj3YIUgqJMEGo6RkREIH2CEiEaY+QPheBmBLQoi6ahsEN6LbbbrNRo0Y5IaXYi3Z69NFH7eKLL3bP/+pXv7KBAwcWm4y7//333zcC9B500EHWqVOnQGnoobYJZH1cZb3+UY0PzStRkY5HPhpX8WiHIKWQCBOEmp4RARFoj4BEmPYI6XMRiCkBLeqiaRgC6f7rX/9yLkCrrrpqoExffPFFO+ecc9zx0qeddlrgwLrTpk1zcWYOPfRQ69y5c6Cy6CGJMG0R0LwSzQjRvBIN57jkonEVl5YovhwSYYpnpidEQATaJyARpn1GukMEYklAi7pomoVgejfeeKM7GSmIBQsuSFjB1NfXGxMuJyIhonTs2LHoCsyYMcPuv/9+93wQd6aiM8zgA1kfV1mvf1RdXvNKVKTjkY/GVTzaIUgpJMIEoaZnREAE2iMgEaY9QvpcBGJKQIu6aBqGN9Y333yz7bLLLjZ48OCiMl20aJFdc8019u6779qYMWNs/PjxLr7MSSedZJtuumnRJxx9/PHH9thjj9khhxwid6SiWqLwm7M+rrJe/8J7Sml3al4pjV/Snta4SlqLfVNeiTDJbTuVXATiTEAiTJxbR2UTgTYIaFEXTffwsRu23HJLF1S30IvjqJ988klnRXPEEUcYz/vTkph4f/azn1n//v0LTc7dh5jzwgsv2IEHHhjIkqaozDJ6c9bHVdbrH1W317wSFel45KNxFY92CFIKiTBBqOkZERCB9ghIhGmPkD4XgZgS0KIumobhFJO77rrL1l13XRs+fHjB1iucinTBBRc48eWAAw6wuro6V2B/WtLIkSPtsMMOK8qi5fXXX7eJEyfavvvuqyOqy9T8WR9XWa9/mbrVCslqXomKdDzy0biKRzsEKYVEmCDU9IwIiEB7BCTCtEdIn4tATAloURdNw8D5qaeeMlyLdt11V+vQoUNBGX/22WfuNCOOtu7ateuyZ0jvvffec+ltsMEGVlNTU1B6/pQlxJztttvOqqurC3pONxVHIOvjKuv1L663BL9b80pwdkl8UuMqia32VZklwiS37VRyEYgzAYkwcW4dlU0E2iCgRV103QPRBCHm4IMPrlhAXGJI3HrrrbbNNtu4U5Z0lYdA1sdV1utfnl7VcqqaV6KkXdm8NK4qy7+U3CXClEJPz4qACLRGQCKM+oYIJJSAFnXRNdy8efPsjjvusJ133tmGDBkSXcZ5OX3wwQf2xBNP2P777289e/asSBmykGnWx1XW6x9lH9e8EiXtyualcVVZ/qXkLhGmFHp6VgREQCKM+oAIpIyAFnXRNujDDz9sDQ0NRbkkhVVC8n3wwQddMF5coqqqqsJKWuk0I5D1cZX1+kc9IDSvRE28MvlpXFWGexi5SoQJg6LSEAERaE5AljDqEyKQUAJa1EXbcDNnzrR77rnHHVW92mqrRZo5wXw5mnrPPfe0fv36RZp31jLL+rjKev2j7u+aV6ImXpn8NK4qwz2MXCXChEFRaYiACEiEUR8QgZQQ0KIu2obEGoW4MHPmzLE99tijqFONSikpp6g88MAD1qdPHxcPRgF5S6HZ/rNZH1dZr3/7PSTcOzSvhMszrqlpXMW1Zdovl0SY9hnpDhEQgeIJyBKmeGZ6QgRiQUCLuuib4YsvvrD77rvP1ltvPdt0003LXgDaePz48fbmm2/a3nvv7YQYXeUlkPVxlfX6l7d3tZy65pVKUI82T42raHmHmZtEmDBpKi0REAFPQCKM+oIIJJSAFnWVaThONHnyySdt1KhRtvbaa5fVMuXtt9+2559/3rbddlt3IpJiwZS/zbM+rrJe//L3sJZz0LxSKfLR5KtxFQ3ncuQiEaYcVJWmCIiARBj1ARFIKAEt6irTcI2Njfb666/bK6+84sSRtdZaK/SC0LachvTMM8/YiBEjbOONNw49DyXYMoGsj6us179S40LzSqXIR5OvxlU0nMuRi0SYclBVmiIgAhJh1AdEIKEEtKirXMM1NTXZhAkT7NVXX3UCyfDhw622tjaUArEZe+2115wb0iabbOLS7tChQyhpK5H2CWR9XGW9/u33kPLdoXmlfGwrnbLGVaVbIHj+EmGCs9OTIiACrROQCKPeIQIJJaBFXWUbDrFk0qRJzl1o0KBBTjDp3bt3YPck2pOgv4g7nIZEEN511lmnspXMYO5ZH1dZr3+lu7zmlUq3QHny17gqD9coUpUIEwVl5SEC2SMgESZ7ba4ap4SAFnXxaMjp06fbiy++6AQUYsTw06tXL6upqSmogGy6eJbgu++++64NGDDAuSANHDgwsKBTUMa6qUUCWR9XWa9/XIaF5pW4tEQ45dC4CodjJVKRCFMJ6spTBNJPQCJM+ttYNUwpAS3q4tOw9fX1NmXKFGfFMnfuXGcRM2TIEPfTtWtXJ6b4oLqILrgdLFy40D3z4Ycf2qxZs6x79+42cuRI90xYrk3xIZSckmR9XGW9/nHqqZpX4tQapZVF46o0fpV8WiJMJekrbxFILwGJMOltW9Us5QS0qItfA7Np+uyzz1xQXd5ks3jDIgZRxcd14R5+aL8ePXrY4MGDbejQoe746Y4dO8avUhkrUdbHVdbrH8furnkljq1SXJk0rorjFae7JcLEqTVUFhFIDwGJMOlpS9UkYwS0qIt3gy9evNjmzZtn/LtkyRL3gwUMQktdXZ116tTJevbsKauXmDVj1sdV1usfs+64QnE0r8S9hVoun8ZVMtuNUgcRYfi+Hzt2rDU0NCS34ip5iwRWWmkldzJmkEv9Igi1ZDwTpF9IhElG26qUIrACAS3q1ClEIHwCWR9XWa9/+D1KKYqAOcvHmTNnulhfupJFIIgIs2DBAifCjB49OlmVVWnbJDB//nx75plnbL/99gtESv0iELbYPxS0X0iEiX3TqoAi0DIBLerUM0QgfAJZH1dZr3/4PUopioBEmCT3gVJEmKCb9STzSnPZvYgStF1LfT7NbJNct6DtKhEmya2usmeagDZLmW5+Vb5MBLI+rrJe/zJ1KyWbcQIaV8ntABJhktt2YZc86Gbbl6PU58Ouj9ILh0DQdpUIEw5/pSICkRPQoi5y5MowAwSyPq6yXv8MdHFVsQIENK4qAD2kLCXChAQyBckE3WxLhElB47dRhaD9QiJMuvuFapdiAlrUpbhxVbWKEcj6uMp6/SvW8ZRxqgloXCW3eSXCJLftwi550M22RJiwWyJe6QXtFxJh4tWOKo0IFExAi7qCUelGESiYQNbHVdbrX3BH0Y0iUAQBjasiYMXsVokwMWuQChYn6GZbIkwFGy2CrIP2C4kwETSOshCBchDQoq4cVJVm1glkfVxlvf5Z7/+qf3kIaFyVh2sUqUqEiYJyMvIIutmWCJOM9g1ayqD9QiJMUOJ6TgQqTECLugo3gLJPJYGsj6us1z+VnVqVqjgBjauKN0HgAkiECYwudQ8G3WxLhEldV1iuQkH7hUSYdPcL1S7FBLSoS3HjqmoVI5D1cZX1+les4ynjVBPQuEpu80qESW7bhV3yoJttiTBht0S80gvaLyTCxKsdVRoRKJiAFnUFo9KNIlAwgayPq6zXv+COohtFoAgCGldFwIrZrRJhYtYgFSxO0M22RJgKNloEWQftFxJhImgcZSEC5SCgRV05qCrNrBPI+rjKev2z3v9V//IQ0LgqD9coUpUIEwXlZOQRdLMtESYZ7Ru0lEH7hUSYoMT1nAhUmEDWF3VNTU22ePFi98NVU1NjnTt3dv/G/aLtvvzyS6MOza+OHTu6erR18RzPd+rUyWpra23+/Pnu/0Hq3tjYaHyBdO3a1WVJuh06dGi3DHFnHLR8WR9XWa+/5hXNK0Hnjraey/q4KgfTqNKMiwjDd/Vnn31mzzzzjL3zzjvu+36jjTay7bbbzrp37x4VDrduGTdunL300kt2wAEH2ODBg4vOm/LfcsstxrjgqqqqsgEDBtjWW29tG2ywgVuDFHvV19fbs88+ay+88IKtscYattlmm7n0KV+QtVFL+QfdbPu0Snl+9uzZdsMNN7g+UF1dvVzxYHfooYda7969l/s7fffBBx+0bbfd1hYtWmRPPvmk7b333tarVy/78MMP3b99+vRpEfWUKVPsjjvusJEjR7rnaSMu2v+9996zsWPHuv/vsccetmTJElt99dWtrq6u2GZb7n7a66OPPnLl/Pjjj12/3mqrrVxbstaN6xW0XSXCxLVFVS4RaIdAlhd1LEbefvttu/vuu+21114zvnz79u1rO+64o40ePdp9qfgvjDh2pBkzZthZZ51lU6dOXeGLZfvtt7djjz3WiSqtXYgul1xyiVuAcT//Hz58uO26665FLzb4Ir7qqqvsyCOPtH79+tmFF17oFkAnnHCCdenSJY74ylqmLI8rwGa5/ppXNK+Ua3LJ8rgqF9Oo0o2LCDN9+nS76KKL3AuT9dZbz22qX3/9dRsyZIj94Ac/iEyI4UXNX/7yF5s8ebLtv//+ts8++xQtmrDJZt2y5557OiGANdz7779v7777rh144IG28847F72W4XnWLzy74YYb2tNPP+3SOOSQQ4ouX2t9K+hmOwwRhvY/44wzbP3117d11llnuSJ6saL5uhHBhj7zox/9yLFAPKO96DtXXHGFY4Ng1fziu/C+++5za+xVV13VTj755GX9CwYXXHCBdevWzXbaaSebOXOm64dHH310yS/vJkyYYFdffbUNGzbMVlttNUN4Yo2PCLTvvvuWLPKUa84I2i8kwpSrRZSuCJSZQJYXddOmTbNzzz3XBg4c6CZn1PdZs2bZAw884BYnhx9+eJsiRpmbpt3k+TL99a9/bVtuuaWNGDFiufsRk3ij0NZF20+c+P/bOw9wKYqsDZeiGAExoIKYQVQMiKiYFXMOmFDXnHPOAQNmXXNGMSCKAcxKMAdEMQFmMaG/EWFVDKz+563dYpvxXubOTE9PT/fX+/AsMt0V3gpd56tzqt/zux4sYFgQsehgQVPqjk9YuBx22GFuwQUXdOeff74XsE444YSp3jFFK5ShG/I8rvIuwmhe0bxSraks7/NKtbgmkW4aRBiM4mHDhrmnnnrKHXfccVM9HvBIQHjYfffdvbcA1+TJk71nAu9xjHK8a/EYpg9GN1YwxLm4B48GDEnEEDwOuK+xjSw2wO644w6/1iL/I444wq9DwkX+5Ie3Bl69DXkwIMLg1XHGGWe4tm3b+kenTJnihgwZ4tdxxxxzjPdgYcOJ9R1ljdYllD147cIHD5iBAwe6Qw45xHvV9O/f39dnjz32iE2gKtfYjkuE6d27t9t111395ltjF3WmnKwF4XfllVd6EQZRg3ahbVn3IcLsuOOOfg1auG6kz1933XV+Tfjmm296kY+NPi7Wr5dcconr0aOHF2FoS7yi2Dycd955fV8KXur0IfILnk2hXPxOntF+Rvv37dvX91/Sot/SZ/H8uu+++3y/RxAife6hnqH96Wv0CdLk/8kXsZLnuZf/D/nx/yEN+ha/038oS7neNuX2C4kwSczgykMEqkAgr4s6Jk9cTnmBH3/88f7FwsUkyouAnZRtttnGT6gwwqWSP0zWHTp08B4zTJjch8cMro9t2rTxuwFM3vw7gg4vfMQQXuZcuEaSNxM43iMsLtiNiLoBs+vA7hAvE8rFC6Mht1peYk15mU6aNMmnN3HiRF+fJZdc0pc/7NgjwlCHQhGGF+/777/vn+Oejh07TrNDQf4snnjJ8RJi5wERhsXQhRde6O898sgj/e95u/I6rkI757X+mlc0r1RzrsvruKom06TSTosIM3ToUPfoo496A5W1AGsLDEg8FljbEMYzatQoL2SwdkCIwSjGaMdb4YknnnAHH3ywXzPQHwkH4h4McQxtfmftwPufECf+FK4BeO7uu+/26bHpg4EfFYBYTz3wwAMOb1/WKYsuuqhPHy/b6NWQCMPv3333nevTp4/bbLPNfBjM9ddf71q2bOlDcFZYYQX/bzDAixhDHqN5iy228Gu4a6+91o0ePdp17drVr3meeeYZv6ZjPUjYVBzrmXKN7aREGMqH98rrr7/uhTH6BeIUXiq0LW2DoEKfgSNeNfvuu68X1KIX3ie33Xab22+//dzDDz/s2wAxC+a33367T4f1IqFC3Et74IlNX6AMhDHRF2DeqVMnHwJFGjzHejyIQb169fJ9NIhwt956q0OYYCOVTVbW22GDFdGHf6ONBw8e7L1kEFr4d8rx0EMP+XUtfZp1ec+ePd2IESMc3jUINvyhD9EX6Js33HCDH0Okz2+s9/Hsoq+W6klfbr+QCJPULK58RCBmAnle1CFMIDywSMD1tFWrVn6yj8bJIoSwc8RkjaDCb7hPEnbDC4DneXFzHxMzHjUDBgzwAgv3TZgwwf//QQcd5N1977rrLu99wkuBhQ8uuSyEeDHxsmOi53le+ggm5LHJJps0GCIURBjcQtdYY42pPYO0yZMXAC81XoIsPnjRsDjhBUR5eMGwE0G5Cb+KijC8UBCoEGEoF+VBLOJlx3O8nPmdlxBcfvzxR79gQxSinriuIsyQT7m7AjF39USTy/O4AnSe6695RfNKtSabPI+rajFNKt00iDDU9euvv3ZXX321N2LxUMBw7tatm9/wQThhzYJ3A0YvRilGN+uWdu3auQ033NALJhimCBm886+66irvUcG6AoN0nXXW8QIGxvOgQYPcDjvs4P87erFeYI3AuoU/N910kzdkWVexbsGIJl+EF9ZIGN3du3ef5kwR0mtMhGFtdd5553nxgLNGWJdgHFMW1iWEGFF/DGn++7nnnvMiw1FHHeU3rO69914fSo1hz3qMi7NSWAuValg31L/KNbbjEmEIR6Ktg3AR0sUjhfbAU2r48OFut9128+ti/hsx6qSTTvLtgQfTscce64USPF123nln7+ESPcuFNTH9hrUn68CRI0d6YYdNTwQK1qYXXHCBF8rIE08VxL8QjsSmHmtZhBfEDbxYWGuTFwLea6+95g444AD/bwiC0Y3KsWPH+v5FGfCEIuSePojgw32Ie/TbEIqP6IJIxDocwYU/CI2kTfnpx5SDMYD3T79+/bzoxKYrfQu7AC8h1sKUDa78d6mCXbn9QiJMUrO48hGBmAnkeVFH3Z9++mmv5iNO4K2CIMGihN0gJlQm58suu8zHkbII4AXErgovdxYhZ599tl8osDjh5czLnDTZZWICR8zgeUQe7uHlxcsMDxF2WQhdYFGDCLLKKqv4e3mZsSvDC40XFwIQHibsBkUvRBjCfdhNiroH4zkT3HBZTLCoYHHDAoL8iMNlQcELCOGlUIRB9OHlOW7cuKlnvPDSot6cl0M5EW8Qj1jEUG/yQazihUQ5WVRRJnbPSg1tirmL1yS5PI+rvIswmlc0r1Rr0sn7vFItrkmkmxYRhroitAThASOT9Q9CDJ4DrIMQMTAs+X/WMBjP/DceDWy+sLGCgY6xiycMRjYiBmd6YJxi4AdvF9ZRGKRRI5l1DelwRgibNogiiB2sZxBz8JLAa5h1EYYuGz/kX3hWSWMiDF4MF198sReZMJ7POecc752AQMTF5hYGOmXE0xfjn/XLiSee6I1u1mmIBRj3lIUL74xyDvpNqwjT0JkwrElZP7Im5e94/8Adz27+jXVoEGHgwxXOimE9GL3oU4gsG2+8sfcyQShAGCNNxB64n3nmmX4NyUYo/RHxA/GLdSrp4m0TwurZ+MM7iz7DIcEIeayzGzrEF49U0mAtjncWfZhyUw7Wvgg4HAhMaBJtTD/Hg4s60I8RFxFhSJuNxjAe+HfEI0QYBD3W0KyFWRdTJy76EkIMa/DgAd/U+UUiTFNJ6T4RyAiBvC/qmKx5GaBuM7niojhmzBj/smaRwYsBkYaY4xDCg/jBC5w/TMDEMrNrRFqkwcsHpZ+XOXHPuGtycBk7MsQXI2ggwrCgQOHHUwUhBZEGgYS8w+TNwo2XAwo9E33US6exM2FQ33mZsBBCSGFHCQGGlyCLJNyReXkhIjUkwvBCPPfcc335EFwQWagrLCgXixoOw+NlSb25EKt4afKS5qXJS4hysPCJY+eo3oZb3sdV3uuveeXv4q7mlcpnsbyPq8oJ1i6FtIgwGHq8m9kc4b2OgcpXhth4YaMJ4xKPXAxYxBoMUcrOex3DlLARQjY4MwWjGC9ZDFu8V/CYiG4WsRbCg/bwww+fulGEQIKnDc8iBCDoYNyyVmJNwToJAxpxh/UKAgxpctAuB61Gr8ZEGNY8nEvHBhPGMesZDHrOLWFuxlMZQx5vHYxs6khdTznllFyIMNMLY0fcQLRinRdEq+jBvE0RYUJYLutL2g4vbPoa/Yw2QKCgHzQmwtDH2OBEgAsiC/2WNPDGQbSj3Rra5GOOpP3xBme9TD6sfcOGJkIiIUiIM5QjfNGTfkX6iG6kzZob0Q37gDUzZaLu3E//IR1EGDYnYRVCsRCs8DSjzxf212Kzj0SYYoT0uwhkjECeF3UIFFy44TJZh4PAOCuGiZjJnoUB6jw7JIWfbwy7A4gwLFB4np0hRBXEFV4CuHKSBiFDLC5YWLBoCRM8/HG15eVELCyiDuWJvhgoI5M87pRRQaPYmTC8SHjxIIiEw8SoA+Uh/8ZEGFxDTz75ZP9CYlckXKSHlw47JHi68AILuxS85BBh9t57by8AIVzxAmMXJI9XnscV7Z3n+mteaVjc1bxS+UyY53FVOb3appAGEYYdfd7dGMasR4JnRwgdYU2BJyxhRfzOof8YwXjjYpzj8YKBy2YRoirGMF67iB14j4RzOBB5WA8hcrD2wLM4bCCxCYUowgZO9Cw+vBPo33g6kA6bXjzL2ih8XScctBpasjERhjmYtRTCC17LiAqseTCaaQd+Y2MKLwzOGGETjjUfnhF58ISZngiD0IAXEYIcnkisOcMXtfByaooIw/qXPsSmJH0oeEPDlj4DZ7yUKEdDnjB4b/M8ohyeUVz0P8Q5+hr9kYvQpEJPa8LtCDUi3S5dukwd9PR9RCHWp6yDX375ZV+OsK5HWCEtxEHqjOcTfZa8KDN9idAm1u/0f9bk9CfWvYyVsD7HBsBTho1W6ljKJRGmFFq6VwQyQCCvizpeEnil8IIntpUXPhcLB8QVwoLY6WF3hPuIoSWelN9ZLPBSQuVmQRNEGCZnXDYRK3Drxc2RHR4OqV199dX9RB3CfMgToYVnUNJZDOHpwvMsdHjRcOEhg9sksdkIHqWIMCw2OJwOd19eVrxseAlSHl5QjYkwlIOXFbsQnAHDi4ndBMqBsMQCjkUMLyk8ZYL4hHcMMdW85FhE8QIjJCuPV17HVWjrvNZf84rmlWrOd3kdV9VkmlTaaRBhEFswKhEvOHsjbKLgDYOIwpqGP8LyRwsAACAASURBVHi1hK/IsGZgZx+xgvc7axUOTGVzijUO3jH8xn/zVSGEEtJg7cJ5Iawz2IQKG1142HD+BuEsweOXNQTeN2H9g4HM2oEwcK5wECuetnj4RkUYxBM2jTB4SYc1F5tdlJuNIi68KoIIQ135bzyPERlYgyHyYHzz74FFCEeCC/ewpiv1jI/G+la5xnZIr5Lnw+Yd5/ogpBVetC99hLML8fZg3UgIPeFieAoVijAIEniN4wkS1qeIJawR8YTmnMTw76ynEeAQL1gP8/cgwiB00C/xIEEwQQjiWdqJeY9zWUiX9TGeWFwNiTA8i6cV4w3hJHxpCZGFc2YoE+t9DmAmTA5vLNqcPo9gxH1BhKE/8e8Ih/R9vLbwzqLObDjyJTH6DGtevHJ4jrKx/mUcRPtqU+aZcttVZ8I0ha7uEYEUEsjroo7JFY8QPsvIggExAYEBtZ0XAZMnIgyxw7wMEDKIJ2Vi54AwJl+EEoSHqAjDYoV7eMGx6OCwMRYcvKRYUBAHzSSN+y5eJajmuPDygsdtF/Uf90cWLZypQigSsdGINuETjKEbFfOEoRzE5LLjw24VBmI4cI0dBl44iE2FZ8JwUFo4jJhysFCDFeWmnCj+LHx4IZIuL208X6gLOxvw5H5eWOxCRUOoUjgEqlKkvI6rvIswmlc0r1RlQvlvonmfV6rJttppp0GEoY6sL9gMIhyDNQ/vacqGEU0oEu9rxBPWPnghYNQiQvAHYQKjnM2r0047zRvQnIkXPjSACMNh/oRjY7jy/xjC4atGpIGXAhtQnFMXPc+DcrFeYb2Bkc45c4g04cszfEUphEdHRRg2lTCkWS+xxsHQp9yEgOO1S7pREYZ7MOhZm2E8898Yz3jDYOBT73AmDMY6ayZEGgQbBIE4hJhyje24RBg2FalH4ZkltAdiAqHoCBa0VwhlR9RC7IqKMKSBcMZ7j37AGpa/s27lE+F4kEe9QRAB8cxGsENQY70cRBj6FOtf1pcINBwLQBqIcXhfIa6xbl5uueV8Go2JMPw7Hlh4o7BGRigkX/oxohMeLPRxhD2OH6B89FW8vlm3B4GHTUb6NeOEtDiUF7uA/sGhzghE2ASccwMn1rrha2KUExalXuX2C4kwpZLW/SKQEgJ5XtRRdyZ+YoOZaJkAeZHjholgguiBVwueMez8IIbwsmYhwO8INjfffLNfTOAdEgyw4JaLAo/QQlw0iw4WI+zQIFbg1kjevMQQMpjQWQzxMuCFz8uByZ4XBC+GqDtv6Dq4XeKxUvh1pPA7ZecwMxZcLEx44bK4YbHBQgexpW/fvn6hQtw0Cy/+jjsyeXM6PoIU9aSchBYRMsULOpwYz+4V5eY5XgTsLFBmxCleWOy26etIKRnsCRZD84rmFc0r8Q+4PI+r+Gkmm2JaRBhqjWcrhmr4BDRrA9YEQWDAiwVPCC7+HeOc+zGA+TtGJ+sYNqeiX9hh3cD5cOFrjIQcRcO4+Z3nEEkKQzWCF3L4EiPrG7wSuPDK5f7C8+XIh7USz3JhXGN0sxGEdw4XIgubQtQD0YkLg5x/w2imLBjY5MW6jDxY6yFKIQCxLkQQwCCn/nGsZ8o1tkOPreR5+HK+SeiP0VFA3fBcYr3K76xR6SsIFIhZiFYIGoEPvBE6YMdvsKQtCAejjDAsDBfiPBbWoLwfuA/mtBntRJ8jX9aprB9Jm3vJhz5APw3tQ7npf42dOUj+9EXW37QjdSCvaAgev5NH69atvWhC/6du5EfaXMy51I9/p08htuA5Q74IVKx1w2fYuZdylvN5avIqt10lwiQ7lys3EYiNgBZ1/3lJ82KCRTiBv/DEdRYP3MPEy8uBlxUvGxR6hJvg7cG/cR8vrnBvWPQgXuAJgyBCbC0vs3BWS+FnsVkkUB7KQX6NvWjYleCehk6IJ1/KQ1rUkTzCVwsQaPg7v5E2ZYv+PfosdQnljL5Qw+5CSIv7SIeXXCg/L3MdzBvbcK2bhDSvaF7RvBL/cNW4ip9pUimmSYRJqs7Kp2EC5RrbcYgwapP4CCBM4c3DhiYe5ZWudcvtFxJh4mtTpSQCiRLQoi453LAOIgxx1HHsqCRXeuVUCoG8j6u817+UvlLpvZpXKiVYP89rXNVPWxWWVCJM/bZd3CUv19iWCBN3S1SWHp5UeJPjSY73jkSYynjqaRHIHQEt6pJrcjxG+Mwz3jPEFwe3yORKoJySIpD3cZX3+ifVz8hH80qStGubl8ZVbflXkrtEmEroZetZiTDZaU/akg3VODZVy+0X8oTJTn9STXJGQIu6nDW4qpsIgbyPq7zXP5FOpkxyR0Djqn6bXCJM/bZd3CUv19gO5aj0+bjro/TiIVBuu0qEiYe/UhGBxAloUZc4cmWYAwJ5H1d5r38OuriqWAMCGlc1gB5TlhJhYgKZgWTKNbYlwmSg8adThXL7hUSYbPcL1S7DBLSoy3Djqmo1I5D3cZX3+tes4ynjTBPQuKrf5pUIU79tF3fJyzW2JcLE3RLpSq/cfiERJl3tqNKIQJMJaFHXZFS6UQSaTCDv4yrv9W9yR9GNIlACAY2rEmCl7FaJMClrkBoWp1xjWyJMDRstgazL7RcSYRJoHGUhAtUgoEVdNagqzbwTyPu4ynv9897/Vf/qENC4qg7XJFKVCJME5frIo1xjWyJMfbRvuaUst19IhCmXuJ4TgRoT0KKuxg2g7DNJIO/jKu/1z2SnVqVqTkDjquZNUHYBJMKUjS5zD5ZrbEuEyVxXmKZC5fYLiTDZ7heqXYYJaFGX4cZV1WpGIO/jKu/1r1nHU8aZJqBxVb/NKxGmftsu7pKXa2xLhIm7JdKVXrn9QiJMutpRpRGBJhPQoq7JqHSjCDSZQN7HVd7r3+SOohtFoAQCGlclwErZrRJhUtYgNSxOuca2RJgaNloCWZfbLyTCJNA4ykIEqkFAi7pqUFWaeSeQ93GV9/rnvf+r/tUhoHFVHa5JpCoRJgnK9ZFHuca2RJj6aN9yS1luv5AIUy5xPScCNSagRV2NG0DZZ5JA3sdV3uufyU6tStWcgMZVzZug7AKUK8Lcd999rkuXLmXnqwfTRwBj+7PPPnM9e/Ysq3A8r35RFrpUP1Ruv5AIk+pmVeFEoHECWtSpd4hA/ATyPq7yXv/4e5RSFAHnNK7qtxeUI8L88ccf7v3333d//fVX/VZcJW+QQMuWLd3CCy9cFh31i7Kw1cVD5fQLiTB10bQqpAj8nUCtFnU//fSTGzVqlONlEq5mzZq5+eef3y2++OJulllmcT///LN799133VJLLeXmnHPOVDQfS6GXv/jCzTv77G6J1q3djDPMEFu5Jkye7F758ku3ctu2bp7ZZis53UmTJrlZZ53VNW/evORnow/EyZ12/uCDD9zSSy/tDYg42/PPP/90XxqvcePG+f4x88wzu7nnntstuOCCboYS24UdCMrXokWLitiFh2s1rmIpfAyJNKX+EydOdG+//bb77bffppkDFlhgAT8H0I9//fVX995777kll1zSzTHHHDGULB1J/Gj1+sP623xWp69tnnvz//7PdW+/kGvRfJaKC1jpPFJxAaqUAIbo+H/9y4359lv3k/WZme19sbjNwUvNM4//++/G85Xx4908NjcvPe+8VSrF/5ItnH+YO/i3JZZYwvEuK+WaMmWKY65s1arVdOeupoyrUvLVvckRKEeESa50ykkERKBeCUiEqdeWU7lzT6BWi7q33nrLHXfcca61LaIxnrlYwM4444yuR48ebuedd3ZfmNhx5ZVXuiOOOMIbZWm4/mWL/1733+82WHwxd0i3VdxMVt64rte/+sqdNGyYO2+DHq7LAguWlCyurQ888IDbaaedHEZsuRei2ODBg31aZ599dsXcaedrr73WnXbaaQ6hI872RID55z//6dNdaaWV3LdmnHXu3NltsskmJRlBiE633XabW3HFFV337t3LRTfNc7UaV7EUPoZEitUfg/rNN990Z555phdco8IhzzIH7LLLLo7FxeWXX+4OO+wwL8Rk4frBxNZznn3GrdpuIbfjssu6xz/6yPV++mnXv+f2bvG5WldcxUrmkYozr1ICf1p/GTbuY3fhCy+4jydM8OI3/9baxOrdl1/eHdh1ZfezzV37PvigW3WhhdwJa6xRpZL8L9no/LPqqqt6bwUM7f32268kIZz+/sgjj3gReKuttpru3FVsXFW90sqgbAISYcpGpwdFQASmQ0AijLqHCNQpgVot6jDOL7nkEnfssce6RRdd1NNjEfviiy+6e+65xx199NHeqyNOoz2OJqqmCIOXzUTbIZ/TPABKFXfged1117lTTz3VtTVPmnIu+L/++us+HbwUzjvvvNSKMJSVOt96663eQF/IDC/6Mh4w9JtSrh9//NH17t3bbbvttm7ttdcu5dFG763VuIql8DEkUqz+QYRBoKP9FllkEZ8rzz3//PN+DjjxxBN9W2ZNhBn/r0luDxM5d19hRfcPExDiFmEqmUdiaPqqJIFwtefgQW4B8xw6aa21XKtZZvWeLwNGj3b93nzDXbfFFm5J84Lb78GHEhFhGpp/mHsQsWc3T5xSLp5hHMw111xu1113lQhTCrw6ulciTB01looqAnVEQCJMHTWWiioCUQLFjKVq0QoiDB4S0R3ur8wbhN3xHXfc0bVv395dffXVUz1hCE1g9xyhZrItyvFcWGeddaaGKXz99dfegCPkhYvD7NZbbz03m+2Wcv/IkSPdiBEjfPgD4TEbbLCBd/8ObuVP2240oS1t2rTxvy222GLeMyd6FYowLMZHfvWlu2/sWPeNeVS0nbOF+4eVa9n55vOP/ev339yDFk4x3NKdpdlMbr3FFnVv2O7+9ksvY94uC0zjev7+99+7m00E2cfKPXOzGd2db73tQ5Oe/fRT95mJIiva/XtZ2rjbRy/qff3117tnn33Wrbbaat6DgPrhHfPMM8+4T+35+aw8G220kRdVGgvV+eabb1y/fv0cMamjzbg56qij/P30EeLSSZ/JHpEHPohnpEUY1Msvv+zDy3DDX8N2oVdZxbyEZprJCyWNecJM77nPP//cDTOvIPIijW7durnVV199qtcU5bnpppvcWOPetWtX7/0y3kIRiLHGK+all15yiCu0NTvWm222mcPlHx7wIuwNHog395tn0y233OLDCLhvww03LGknu6ExUqtxVa3xWmq6xeofRBgEv+OPP34asQ8POEQxvLrof1ERJswBL5hHRJgDEM4IBSFN+nDhHBDmCDymXnvtNd9Xf//9d7fMMst4jxv6uw91sf5D//jIPFOKjZef7PmhH3/snvjoQ/ev3363sKLZzSNjBdfFQuF+mPyLu+qVV9xaCy/i1rc5hOttK9fAMWPcP1ZYwQsHV74ywnW0MJpdOi/nFrBQuvOff84dZ+OGcJqvf/rZrdKundvVBJrWJkJNMQ/BMd9+4+4ePcZ9YWONUMidzeOrq42NKTY2r7Z5rcUszR3zx7///Mttah5DQ22+YR7hWfKijFx/2f8QL9ZfdDG3p80l/7Z6D7F6PG4hg7/+e4rNN+182vMVzDG/2W/XvfqqD5fazcrV3MY54VS329gk8m/X5Za3UKFJVsexvqzMddt06uQ2sjGFoMwc+OEPP7j9bawiMv9mY/EKY0TY0IbWxve98477PwvH+c3S/MLmur2s7CsZyxDu+fmkiW7bAXf7MpMG+XMR1kV4KHMj/4YnzBImxhAqyr/PZfz2sGeYa8P9j3/4ofeqgUOoL0zxIHrY5pUVFpjfz9cw23CJxd3WS3Vys//XWzOMg8L5h3mDcCK86phXeNdE558tTCTC24s59EPLnz637rrres893mdXXHGFf0/RH7fffvtGwyKLjatSx6nuT46ARJjkWCsnEcgTAYkweWpt1TVTBGq1qGtIhGFHEAMK74YjjzzSL0SDJww75YMGDXJPPfWUF184HwKjH8N5991398Y2xhoiAAvb7777zhtbuHdvvvnm7vHHH/dGPeIA16tmUGC8I/aEsCfOE+H8GUQLxCDcyjuZIRG9oiLMQSt384v288yA6mzCzaIWSjDGjK0Jv05255tI0bnN/O5yK8PdY0a7ta38GBTPf/a5GVIT3U1bbe02sbJHBZERZjQc9thj7totNvdZ7n7/A27BFnOaMdLWG4kYfDsss6w73oy1WU3gCBdeK4QQ4dIevDkwADBwETEwZBGXqNM+++zjlrUQiEJxCfYDBw70xilcEDhCGBhGwzXXXOPFMsSLMWZMch9txK7vzTff7D755BMvfvDvtC3i16abbureMeOqIRGGkKlizyHQIb7QxpSZdg3lxmCmzvQXDBz6BGLK8mYgkm///v3dkCFDvCBEXvOascfvHTt29HVAqKPPHHjggf7MEVitvPLK3oCK5lPuYK/VuCq3vHE/V6z+jYkwCGW0ad++fb03HMZqEGEQ/WhD5gDaCi8ZxELE0t12282HpV122WXe2KUNCU9DdGVMhDmAZ+mnjDvmB/o6oY/0p6uuusrNY8IIfQQRkIXNXnvt5eeE6DhF2Lh8xMvuHhsH61qZMNBHfDHeI7zW+uJMM84w1dNlDxNduIZ8/JE73fK+ZrPN3aj/+8r1ee45180ED0QF0tv/oYdch3nmdqub8Pzz7394geegbiu7g63/v2BzxnHWlxc3T4lO883r3vn2O/fpxB/duev38CLtLvb1FEJ0EF8WMVF5Kevr5MU8Mvdss5sA8q77w/Iw/cULwAgMZ5oAgMhDPQbbWFjTxEvqgQi0zLzzuTPsdwSMcCG4XG4sH/vwA3fndtt74Qhh+ICHH3K9llvOrb5Qe3eEzbFclOlba4tXxn/h9lupq6/jZcaa+e0mm4/nNrEhOo/ub6FEpw8f7u59Z6zb+L912LbT0q5T5FwXRK9T7Z7nPvvUi0BLWxk5D2ax1nO5mWf8jyCDt8wegx5wb5rIivizUIuW7sXPP/OCEO1Cvr2fedo9bXMVAtnMJg69YO283PxtXO9113MjTaw9yuqwqHFGiKEd+P3AlbuaoLXSNN6JhfMP89Rz1qbMxcwpeHJF5x/60L333uv7LPMowjBi3/777+/nduZX3nf0U95RjZ3rVWxcxT2OlV58BCTCxMdSKYmACPyPgEQY9QYRqFMCtVrUYagTbtChQ4epnizBIwUPFhaniAZBhMHYv/DCC72RzM42Fwe+4gFy0EEHeSOJT/YhMmBkY5Dh3cACFzEFYYed87333tsvdvGGYNcSw27AgAFepDjkkEP8b+y24xHCgpn7w5k15Bk1HtjFPvTRR72xcsnGG/ld4i85E+ChB12HuefxXiuIKjt1XtYdYIYGZbzHBJnThz/lrrCd02IizE4D73VH2xklB5rB+cef//aGG0bUHdtuZzvf0x7gGfU4QXC48cYb/U4sQgqH1rJLy0Kfi/APdl3D5b15bOcWo2GPPfbw9Q/cMXDZqYURaeGdhNCClw3iCCJLaAMMjRBOMnToUH/mDy+HhkQYjJVizxEOhZdEQ5/nDEb8HXfc4e+h3S699FK3nBmEiDB33nmnP/T1lFNO8Yf1Ugf6wDHHHOPbnDrS5hjc1Afvq+22207hSDHNY8XmldB+tHE78/oIIWQ8R59BKGHcRs+E4R7mANqXOQBBDoHwhhtucPvuu6//b4Q5hBO82RjvnPVDmswLCDuMedKlvyDScA8CL6IdRjFjg9/C/MF5NdzP/4cLY//EYUO9WMHYxJvkGTPsT3tquLtm8y3cQi1bNCrC9DXxteWss/wtHIl55Nz11/dnxOAlcvQTT7jfbcxfbPPdaTZffGfz2dU2Z+AFN8H67tFPPO7PROnTYwPz/hjs2rds5S43b7DZvCD0PzG3qwm44Xr/h+/dSTYuFzahBtHhcxuDeI4gxiBsNLP5aYSJMCdZ3Uh3Axv7QXwixOk1Ew4OefQRL/70sN8eMgH6mpGveIEDT5d7zAvmxi23dMuY191kE3UvMW+0Rz54392zww6u/9ujpyvCnGYCyyib7/ttu42vS+FF/t9Z2z1MeiZ+jZvwo7GYzQsmzMOb2nuEUM49TaifwxhcbWIGoguC03FDnvTtggh+gIldR9mcinCEj+OzJuocbnM0olRzE2sOs3bobQIyv//bhKtLrQ7DzWvm5q0pV8tp5ky8MsP8wxxz++23+zkXEebuu++eZv5B2L/gggtcr169vPDHRd+l79PfmJs5H03hSDFNQClMRiJMChtFRRKBDBCQCJOBRlQV8kmgmLFULSqIBpxfwoI0fBGC/8eTAcMY4YBFahADMJ5OPvlkv4vIfVwYz3hlsOglhITQFLxaEFjwzOC/CWE5+OCDfRgCxhqGGgYe4TrkRT7nn3++z4u0g9HBopl8zjrrLL8bH66oCLPJEku6fU1w2dPOdtjH0uRCLLnohRfdS1987va23VMO4Lxxy628az3XB2YI9TKx6Kz11i8qwnC+waUbb+x329ktv9oMnqEfj3P9TSyYnghDnTBu8RbAtZ0LgQtPIEKuEC0CQ35jAkewWnPNNb3nyMe2Cx89i4ddW4yEIFrAj1AOxIyHH37Ye83geRAMVcKMuLdPnz7+jISGRBgEkqY8h4hCyFDhVUyEueuuu7w31KGHHup3ldm5xqMC8QivGsQayozIxOJYIky8I73YvBLajz5CX+I8DC4MUdomzAH0xeAJwxzA/fSH8BUrvJnwajrggAO89xVhIrQ1fZo5gN/wUkBgZQ5AiOFC2Av9AHHnoosummYOoHx4w+AZc/rpp/8tPOSjCT+4keO/9CE4Y7751oujhMbcZeNtoVYtSxZhTh0+zN1mHjvLztfGe60gloz7cYK70Oa1gx5+xDxElnBHrLraVG8MQoPutfkNYeZYExmYI8LvDYkwhDEhEiFEMPe0tTniSROdmL8QMoLXy68mAFGXs+2efW2cR8+mwhsFkaLNnHO4k+1cljNtLplj5ubeMw/hht8ROxBBuAijxLPkxq23ckM++nj6njDmufPNzyYUR55vqEciPHEA748mhL1snjaIP6PN+/B8E40Iz0IAX948EPHkoa6vWajoXoMGu4uMI8+d+9yzbkDPnl4k58JrEbF7844dvGcNB//222Zb//dQhyOtDjeYuISHT7gK559CEQavwuj8wxyD5x9hksyb9D/6PZ6WvHMkwsQ7/6QxNYkwaWwVlUkE6p+ARJj6b0PVIKcEihlL1cLS2Jkw0fyiIgw70xhghBdxXgMXZccIY0H7g503gJDA54nxyEA4IRQBYQBPGTwfEGfY7UaceeONN7wQww45HhksqhFswqdFyY+FNa7hjXnCbLpkB7eP7ULvtWIXE1y6+DJhQF1iXhcvmgHHv/W2MyZu2Xprf2YBFyLMbhZScabtRBfzhMH4utJ2/fnaRykiDAYqrDA+8e7gQoQZbrvNnHnBYchBhOHfEWYwEDAOOMeFxSIeLogt22yzjTcW4As7/uA1A088Xfjvh2x3eWurY/CuQXiBJ6IOYkxDIgxhJE19rqGDhpsiwkywEA0EONoPj4dQBwx1QtnoP4cffrgP2eIMEnnCxDfai80r0zsTJlqKQhGGr2HhDYenCxfp0BeZAzB6mQNozzAHvGLnjiCyMAcwV+Bdhwcd/ZtDqBF78KLBcwxjGBEyCLH0GfJBzIyG73H20ykmmoy1sKDNOlgIkIkYP/wy2fWzOeUa88CYKsLYGTGcR8JFGM9ZNvYa84SJfh0piDCcoXLRRv8RYTYxgfhIO+8JUQSvkOteHWnnUL3jrjIRhlCl6NfaCkUYvGjOtrzHmufP5Taf4KkCtyctROqwRx9z+3VdyS32368yIXJwjhXhOpxZE704T+Yu82i55Y3X7etDa7qLbZ47zubMNc2T6Bjz3OE5Dsidbab/iTD8+/UmYHDuTDQcaRJfmTMxmjNXfDiSiTDf21k6iErh+WjehElxlgvnwRAKFa5vf/nZe79whg7ehgdbSGb060iIMHs+MMhdYCIMAtPZJooP3GFHf4gvF15NlGNTa0eEFwT027fb1sK6/iMK4klzwtAh7joThxB5wtUUESY6/zAn4iXDfEj/4/3DhgFeW2uZoMUGgTxh4pt/0piSRJg0torKJAL1T0AiTP23oWqQUwLFjKVqYSlVhMGbAWEBY5/DCxEL8ILBHZzzIDCoWNxyTgkCAwueiy++2AsphNgQbsDZKBubZwl15kwYwlMQJBAh2PXmDAoWwggweGnwLGfGROPzo54wvewwSnaGcYs/f4MNLRypufvKwn5weceA4RBO3Pc5sBNBhp3Zu0a/7cMLcJePU4TBs4TdVLyLMBwRVQj5wQMAzxjqxO8Yk/xb8FpBhME7BJb8nQux6sknn/RhHxgIiGF4FBCaRVgYv+M9xPkFhD5hQCBm4FnARSgS523goYTR25AIgyDS1OcqFWHoK5QJ8Y06IBZxgCtf58KDCqGNz3HTtzgsM46rVuMqjrLHkUax+pcjwjAO6XeIZetb6A59OcwBhHHg6cIcQMgZcwAeWYSo4WVDuzNXIDQyB5A/Ag0eU8wBnBXDHEDIHfcjwDAHkA4HXUeFWEJ2GOOnW0jUFibi2Lm0Jky84UNX+ploiSiDMLCBzTeEExKudIGdG8Xhs/3tPBUfjmS/97IwGkIWC7+OFBVhrtxsU3fus895gYLzZOazs7Dw3iCExpL1Z08dZMJDYyIM51Jd/OILbph50PVeb123RvuFpx52y9kp+1k40v525gnefM2M51MmEuAtQngO58TM4Gv3v4uzZxCe559jTn/I75WbbuYPJb76lZH+7Kvrt9jSLW0iD2fIXPLSi+5Ra4/+5h30wDvveq+VW7bZ2ocbvWV572rix74mADVFhOGQ3b3s60j72xkze5s43MrEddpw7Hff2hz7qNuq41I+pOpA88xrSIS50MSsee18HFgda8LRDpyLhcjyyTjz1nnCvIPW8wf7EgYG061MyEf4TS/6JwAAIABJREFUPt/OJ0JQv9nE/3YlhCPhCRMVYeinnGnGu4iNghAeSv/ac889p/Y13mVhI6ChcVhsXMUxdpVGdQhIhKkOV6UqAnknIBEm7z1A9a9bArVa1JUqwhCCEA7mxUMDbw+MKAQHvB2CqMLXgfg3vB3YbSS0AXGFQxMfsM/CsmNOiAGiBUIEZ0BwNgQHs+I9g3s4O5TslHMuDeFS0UM5Cw/mxaWfwx6Xmmdec3Gf238FBdd/zojh4M1rbMf6Djs7YI3/HnyJiz6GzC12xsDGRQ7mLcUTBo+Bc845x6266qpeHAmLfLyG8AogNAOvFcI24De9K+qBRLgOzyHgcNZOOFSSexBzwgG75I+YQX9CgMGjAOMV4aMhEQbxBqGoKc9VKsJgQFNevCiCpxQhVuxK4yHBuQwY6xwKyyGuhCkh3FRy1WpcVVLmOJ8tVv9yRBjObnnQRAPOLmIcM17xymI8h5BDhJbuJnzQv2hzxjneLnzpiy/TED7Hs4iteGMhUNIHWMTwJTbSRExEkOHAZsZLOMMj8Bln43d/O5AWo301m5cmTP7Vhx+On2QhJybkIV7gecJB2ggxf/z7T/eq9bdfpvzhbrdQl/ktTw60/cW8IzhTBjGF857699zeDt9tPTUcCU8YDrJ91zx8TrZQQs4k6Wj1+si86d6xfzt9nXXdOsZkV/Osa0iEuWrzzewQ32/dKcOGu27t2poA0975TxnZtYCJKIQ43fL6G/6MlTUWbu8/+8yhtRwGfoUJsAgthddkGyNnmGCFNwwhSYRAIS4zpyEM8cUhmOB9g3jBV44OXaWb/1LRISaALGPhVsyTiCeEcx3VfbUmiTD/slCnS0xMGmjzSQdr73lMSOVLUISFERKFhw9fdOKMm4ZFmI3c2tYuF5n3Dl5J3e0g4Tn4WtGnn/gzcgj7HPXV/3lRivAs2pA88d6hjRDLEKnCVaonzPf25Sq+gITXFvMv8zNnyhAuylzJmVu8z/A8xCMznJFUyL/YuIpzDCuteAlIhImXp1ITARH4DwGJMOoJIlCnBGq1qMP45ms+PS0+H8O4oQsvCgwuPDIQE3DpxujikFVCCxBYCHnBY4Wda8JtCDPBsEKMYKcc8QEPB4QUnmOhi8cHhhaLXYw1fkN4IS/+n7zwiODQ4MJdSc49uMLCnPh6BuFI7HK/YJ4k95toM/G3X/0CfqdlO3tPGEIHuH/g2DHu2U8+da3NcFjSvoBy02ujvJHDQj968YnZ221hvvdKXbzhFj5XTVrsyuKOj/F1uIkdsxSIBCzuHzMjCI8VvhZE/RAZYMIEzYG6fMqXTzgXExgKuWNwYJDCh91dBDE8ZDiYF8ac1UGYE0YFacMew5UvWNHOeKHQzrRZtD2b+hztW3hRJtqWNiVEDaEFAxtDHSOHL+yEz8VSJtocYY5zcQhbKawDgt2jtqMevq5UjFGx4V6rcVWsXEn9Xqz+of3on9EQw8Ly0Rfp18wBzBP0IQRXhD7+jmDGHICown/j0cLviLQIsuRDu2PsIrryaWuepXw8iwHMHBA+UU3/wDOMOYDDf5kDCvsC4UB8decOO9cKIaWTHdC7lo0rvD4QNgjlIWTpVutT75jYsGTrud1KFsryqnnQ4MXRzsrGWMZzhBAXxNrH7NnDVl3FhIQ5/IGwd5p49LUZ6gdZSOEczWe2Q3G/8v/2vYkbbe35HZZdxq0w/wI+xCY6HyGIhHmEUCiEEA7HbTbDjFM9YGC8lM0pRxifZvYlp0fe/8B/vYk5ZwULm9zR0m47Z4sGP2UPp0E2F5xnolFfm1f5Kly4EGJggnjUykLAtjTxK3x1Cc+YJ20ueNDmJ8rYw8Spz02s7mjz4YaLL2Esxthc+Zv/ClH4/HRhX+Dz1Ygmg999z3sG8VUkxCW+pAQT2uIG84Yi1AhPFi5YXGvvjN3NK5HPh0+yOfp+C+N61trYqu4Foy3Ni6aNzVVPmNh8up2bQ1gThwQjV21tojxftot+jY50C+cfvOsQ+XgPES7HvBSdf3iGvoyHIfMWcxp9j3mafskZZBwsTz/G+5K5s6Gr2LhKanwrn9IJSIQpnZmeEAERKE5AIkxxRrpDBFJJQIu66jULhhhGAecVdDcRZIoZEXfZ7vs9JsrcYG77hWcuVK8kSjlpAnkfV3mvf9L9LYn8EHz4AtGNJnRzFst5dhgun7XOwoWoUhgWlsZ6aVylsVWaViaJME3jpLtEQARKIyARpjReulsEUkNAi7rqNQWu+5fZORGDbPe3lZ0Dgas+Fwf58gnUxnZ8q1cipZwUgbyPq7zXP6l+llQ+HNiLpw9fQWo962x20O0G5kXSvuDEmKRKE38+EmHiZ6oUpyUgEUY9QgREoBoEJMJUg6rSFIEECMhYqi5kwpH45CteMc3MDZ/zDJay8Af+riu7BPI+rvJe/6z1bEKwCI/ibJuF7Gya5SwMKXpGShbqS/0I9+zefiE3S7PKzoSqFg+Nq2qRrX66EmGqz1g5iEAeCUiEyWOrq86ZIKBFXSaaUZVIGYG8j6u81z9l3VHFyQgBjav6bUiJMPXbdiq5CKSZgESYNLeOyiYC0yGgRZ26hwjETyDv4yrv9Y+/RylFEXD+QGm+5sdX6XTVFwGJMPXVXiqtCNQLAYkw9dJSKqcIFBDQok5dQgTiJ5D3cZX3+sffo5SiCEiEqec+IBGmnltPZReB9BKQCJPetlHJRGC6BGQsqYOIQPwE8j6u8l7/+HuUUhQBiTD13AckwtRz66nsIpBeAhJh0ts2KpkISIRRHxCBhAnkXYTIe/0T7m7KLicENK7qt6ElwtRv26nkIpBmAhJh0tw6KpsITIeAFnXqHiIQP4G8j6u81z/+HqUURUCeMPXcByTC1HPrqewikF4CEmHS2zYqmQjIE0Z9QAQSJpB3ESLv9U+4uym7nBDQuKrfhpYIU79tp5KLQJoJSIRJc+uobCIgTxj1ARFIlEDejaW81z/RzqbMckNA46p+m1oiTP22nUouAmkmIBEmza2jsomARBj1ARFIlEDejaW81z/RzqbMckNA46p+m1oiTP22nUouAmkmIBEmza2jsomARJhc94E//vjD8Ser1+yzz566quXdWMp7/VPXIatQIM0rVYBaJEmNq+SZx5WjRJi4SCodERCBKAGJMOoPIlCnBLSoq9OGK6HYY8aMcaNGjXItWrQo4an6uPX77793u+yyi0ubEJP3cZX3+tfH6KmslJpXKuNXztMaV+VQS8czEmHS0Q4qhQhkjYBEmKy1qOqTGwJa1GW/qUePHu0r2blz58xVdtCgQW6jjTaSCJOyltW8krIGqUJxNK9UAWqRJDWukmceV44SYeIiqXREQASiBCTCqD+IQJ0S0KKuThuuhGLLWCoBVky35n1c5b3+MXWjVCejeSX55tG4Sp55XDlKhImLpNIRARGQCKM+IAIZIKBFXQYasUgVZCwl38Z5H1d5r3/yPS75HDWvJM9c4yp55nHlKBEmLpJKRwREQCKM+oAIZICAFnUZaESJMApHSlk31rySsgapQnEkwlQBapEkNa6SZx5XjhJh4iKpdERABCTCqA+IQAYIaFGXgUaUCCMRJmXdWPNKyhqkCsWRCFMFqBJhkoeaUI4SYRICrWxEIGcEdCZMzhpc1c0OARlL2WnLxmrSmLH04Ycfuk8//XSax2aeeWbXvn17t/DCC7tmzZoVhfPTTz+5sWPH+k9gr7DCCm7OOecs+kyxG7766iv3yy+/uEUXXbRoGXQwbzGatfld80ptuCeZq+aVJGn/Jy+Nq+SZx5UjIszkyZPdbLPNFleSSkcEREAE3MSJE92CCy5YdL0cRTXDX3aJnQiIQG0JaFFXW/5J5N6QsfT777+7q6++2r399ttu1VVXdTPNNJNjSv7222/dl19+6XbYYQe3xhprTHdS/+2331z//v3dO++847p16+Y22WSTij+DTX985JFH3Pjx490+++zjmjdvPl1EEmGS6EGl56F5pXRm9faE5pXkW0zjKnnmceU4ZcoUL8LoEgEREIE4Ccwwwwwlb4BKhImzBZSWCJRJIO2LOrwiJkyY4JZaaikvCEyaNMm9++677ueff3ZdunRxc80119Saf/bZZ+7XX391SyyxREmKcJnomvwY4gZlQ/igbDPOOOM0z1a73NMzlv7880930EEHTRU74DdgwAD30UcfuZNOOsm1bNmy0Xqivvfp08dtsMEGbr311vNCTqWXRJhKCabj+bTPK+mgVN+l0LySfPtpXCXPXDmKgAiIQNYISITJWouqPnVJIO2LuieeeMK99dZb7uCDD/ZG/q233upeeeUV17FjR/ePf/zDu+Bxsct0++23ux9//NEdcsghRT0okmwsGN95551eTKIehPyEi3Lfd9997rvvvnP77bdfVco9PWOJckR5IRg988wz7v7773ennXaam2+++dzXX3/tnn/+effBBx+41q1bu4022sgtsMAC7t577/WeMB06dPBeMK1atXLff/+93+2jPttss413vX7xxRd9yBKhSuuvv75vO5R7QqGeffZZ7/Uy77zzug033NCHQuEJQ16EN73xxhs+jU033dQttthi/rnoJU+YJHty0/Oq5byCkEg/Dm7/hMrRJ8NuUWEfanqt/n4n+VBX5ibGMmF0LVq0+Fs/LScP0ibcb9ZZZ51mzignrcJnKCucKgkf1LwSR0uUlkYtx1VpJdXdIiACIiACaSUgESatLaNy5YpA2hd1GFDBWMDz4qyzzvKeFxjzhKoEr5J6FWHobNSRP7PPPntV+l4pxhKeRohZxK8ffvjh3ni96qqrvMfRyiuv7MURxJNdd93VeyVdeeWVbt1113XrrLOOe/PNN714s+WWW3oxhT+33XabN4gJbeK5MWPGuD322MOLLoRDIeDgHTRy5Eif5wEHHOBeeOEFXwbSXW655dyIESO8uHbMMce4ueeeWyJMVXpJvInWal4h38cff9y9//777sADD3SzzDKLGzp0qBc655lnHi90IubFcdGv6fMIJauvvrobN26c69u3r9t///3dIossUnEWePtdc801bvnll3cbb7xxxelFE2Ac3nHHHe7II490888/f1lpa14pC1tFD9VqXFVUaD0sAiIgAiKQKgISYVLVHCpMXgmkfVH36quv+lCetdde291zzz3uwQcf9EY7Rv9WW23ld4m5CkUYdqZ5Dq8OjH88OvDgWHzxxf0uNffjnfH00097kQeBgfNQMNC6du3qxQc8OEaNGuVDclZaaSX33nvv+TTwvkEQQhx47bXXfOgTIgNpYPRhnHGuylNPPeXLgOcHp5fDutAThnAgyogAgTcJZ7QQgtWmTRufP2VDjFhllVX+FsbU1D47PWMJ8aNTp04+KfLinBc8CHbbbTcfAjZs2DBvxB511FHeiIXL9ddf7w03ynvuuee67bbbztcfDxbSO+GEE9wcc8zh/463zKGHHuratm3rmeM5g+BE+BIizO677+6WXXZZH6r1ySefuCWXXNLn+dxzz/lwKEQX/v2KK67wHju0ffSSJ0xTe0Gy99VqXmHsMX4YT4w7BJKLLrrIiyI9evTwY5cxGsdFP7722mu9d1ivXr28CIMoecQRR/h5ptILhsw5pB88/ipNMzyPdyFlx9uNsVnOpXmlHGqVPVOrcVVZqfW0CIiACIhAmghIhElTa6gsuSWQ9kXd4MGD/W4z55YgerB7i9iBCIMwEr7gUyjC8OWf6667zhsYGEQYSBhnHPaK0Y94cvPNN3sBAoEGQYbd4b333tsLLYgFCEAcOIswgRjDznTv3r29QYQQQRgNZUC8QDzBQwdh4ocffnCXXXaZ99RZZpll3Mcff+xeeuklLyRhoBWGI0XDqNjFR1igXBiOn3/+ufc+Qcjo3LlzWWEO0zOWEJ623XZbL4wgBiEuIYwsvfTSXky65ZZb3Msvv+xFIFgjGlFXGOy1117u/PPPn0aEQTDBmwURjHo89NBDrnv37lPPi8FDgTTYgcc7gdAyPGY434c/fBHpscce82fSIFhhMCNonXPOOb4P4BkjESb901Ut55VwjhRf+GLOYCyvuOKKXsxkPBZ+9QuPLsYYfR9vNIRABEf6KYdOI4K0a9duqlCJMMI9hOnhqYLgiPcXzzIv0P8ZT3hvMU6Yf8J5ScxTzEXMHQjICEWkjzBMuRGNGHekjeDIXMLvlIfQPOag6IVYy1glfe5lfDFfkS+CcphrSJO5hLwJQUL0xEutWiKM5pXqjNFajqvq1EipioAIiIAIJE1AIkzSxJWfCDRAIO2LuiDCEIqCYXPmmWd6ox9BI3pFRRhCDvr16+eNIEQPjA6MGwwmLoSYG2+80YfYICRg6GP0n3322T5tDLXLL7/c7bLLLl5AwBhDHLn77rvd6aef7sNwQtgBRhS/47WCJ8hxxx3nED3w5qDMGEkYd5deeqnPDzFleiIMaeDtc+qpp3ojjLwuuOACXw7ORWnKZ6MLm7mpYQOcWYNwRX0oJ9wQYTBQ8SIIeeMNEz5jjSgV9YQJXzXi3gceeMANHz7cbbHFFlO9DxCs4IDgwt8xDBHMELnghLcLhiTCS/g6En+nbRBhCM2QCJP+qaxW80o42BmhkLFNeNyQIUPcQgst5NZaay1/TlHwnoPiF1984cWIb775xospnGXEeUf0Nc52ueSSS/zZRFtvvbWHjqDK3IBAiGiCNxfpMT7woEN8RfilHPRv+jRnVyEac14M5UGQZWzxO3MP/ZywPMY+AiTeX4gqhCDhhUb+fMEMMYn5gAsxhnGN6EvYFeInAjVjmHIzRsmTscdYJMQPrzTmHtLm7CaEmPPOO68qnjCUMZw1pXklvvFaq3EVXw2UkgiIgAiIQK0JSISpdQsofxEwAmlf1JUjwuDJgfGEx8z222/v2xlhAWGE8CPOJCG8ZaeddvKGGRcGEmEL7Jiz64yAQFgNIgoXQgHG12GHHeZDBBAn2IEOggrGEYLCKaec4r07EH0QMvCGYRd64MCBfncbg2l6Isyjjz7qd+/Dl4kwphBw8ADZfPPNqyrCUE88gi6++GJvvPGHkCpCg0I4EoYjAhSeAYQg4aHSkAiDoYexCcejjz7aG3qIaBiK1B+hC4Fmzz339LxhQz3JE6NNIkx9T0+1mleiIgz9jnGIMIJIQn9F9AgH8zInIEwgMiKEIA4iIv7zn//0AiyCH32yIRGGeQBhBxEG0WTnnXf2zyKeIp7gXYb4gRiMYML5Sq+//roXUvC2w9ONsY0XXJgrOKQakeb444/3HmGMF+Yc8if0Eg8XLsQTvMjw0kEM4nwl6ohHH5+WR0zCq4/DwMmL3xnTCLmUjXQ54BwRB3GzGuFIURFG80p8Y7lW4yq+GiglERABERCBWhOQCFPrFlD+IpBREYadZ4wOQokQCIIIg9FPyA2/B08XDLMgwiDcYHhhtCCanHzyydOIMAg3CCuIMHirYBiFw3TxxOFiNxwDCVEGL5wgwvBv7JwXE2HYCSf8Ci8ajKmkRRgMPOoOK4QgdtUxNCkLh48iRmFM4imAx0BjnjDUGy8AQr4wHnkWYYUdeUQwQjQ48JfzdlZbbTW/k0+6hHJgQAaPGtKRJ0z9TVW1MhYLRRj6M+IqIYYIrtEvIyGOEp6DSIIAw7lNeNDgfcI4JdRweiIM4YJ41xEuxEHVpEV4HqF2hA5yEZKHGImgi6BMHgiawRuHsU4IE+Odfs85SieeeKIfb5Sr0BOHeQZRFK8Zzm1CoOHMqzPOOMOLzog3XMwbzCUIt3jU4e1z7LHHTg2rYqwhJJNXEiKM5pV4xnCtxlU8pVcqIiACIiACaSAgESYNraAy5J5A2hd15XjC8HUSdphDeAuu/3i6YDDxNSXCFG644QbvgYHXDLvjhBng1UHYQQhH4jfOQsFYw+jhYGDCkfDUwBuE3e1wdgqGGwID4gSGHOFLGFYYOOx0I/pw4C076NPzhElShKGM7NYT0hANcyIkAw8Bzs5BPCF0AS8ijEwEKkLBCJ/AK4ade8QuwrI4Q4cQsGjoEqx4Fm8DBBcM4XAuB0ILoSKILCFchDAnDMRoOpx1QT/gzB1+j146mDedU1it5pVSRBg8YRA9CDOk/yOoIjriYYJQWI4IU3gwL55geJPhIcP8gRdK9JPwhEHiecO88O677zoOzGXeYK4oFGEoL3MM5cXjZc011/TlRhglfQ7LRkwKF3nx2XfmG4RVvPSCZx/5MgciFMctwmheqd6YrNW4ql6NlLIIiIAIiEDSBCTCJE1c+YlAAwTSvqgrR4TByEFUQXTBRZ+v/OBpgeGBpwXnkXAw70033eTFBIwQDCAMMkQUjH3EBQ6k5V4ufkMM4GtAGDuEGZAH4UsYR+x24+4fPt3MmTMYUQgO7H6TFuc6xCHCsMvNgbfscON5U+xq6EyYYs/Uy+8SYdLZUrWaV0oRYfiCUp8+fRwH+BJOhADD2TAXXnih96BDhEEgYf7o2bOnB83ZRXxVCA8SPGH4O8JH8IRpTIRBvEWMRGTBKwZBEnEXzzwEEkKQ8IpBwCWMqlCEweuOOQrhBGGYMEu8xLgQM6kHdQjhlQjQiCEIqYQG4nWGFx9hUOTLfES4Et5+cYow6eyNpZdK80rpzPSECIiACIhAfRCQCFMf7aRSZpxArYylpmLlfBU+88zXR3DFD54X4bPKIR1+40wFBAo8Owg7wHODsBpEEDwo8ODA4MIood4YROxScyGmYLTwLJ9PxnOG82P4IglGCh4gDz/8sP+aCF4bGHCEBWA4kR6GEeEAhBFwYczh5UGoAEZcCFtiZzp8KYX7CsuNOBTqi4cO3ibki8FH+tSLs2cwDjnHApGn2CURphih+H9P+7iKv8bTplir+pcqwnDoNSIKZxHhOcJ8wJyBYMF8gUcdXlycH8WFxxtCCaIKoT94xOEpxhkyhN0h/EY/UR08YQjbY04gtA+xFnEXLzG8Y/AiI0QSkaYxEQZBiHBIQp+iYZDMJZxJM2DAAH+gNWfR8N/MhXiU4VVD2CAhT9SP+Y3/Zx5lXsT7L4gwiMYIPcxXeA8WuzSvFCMU/++1Glfx10QpioAIiIAI1IqARJhakVe+IhAhkMdFHUYIBg/nMiCecHHOCwYXoUp83hVBhjAbxA/uJ0wIQYYd66jLf9KdiV1shCl20DmUU8bSIH/eRxC5km6PxvLL47iKsqhV/ckXoQSBgPHB2EUYIXSH85+iZ8LgwYZQcdddd3lBBA83zoTCw40zi/A2IVQOgYOQH7zqEE8QKnr16uXvIQSPc48Qd/l6GeIG4mg4m4V5A0EE7xc8bfCkwYuN86HwZGH+QQBiTomWG08YhGA8XxBpCCkKZyhFv+6EIIznH/VCrEXERbgl1JLQSuYwQpb4ClQ4zJexQtn5jDRn3zDfhXmFsnGmDaJzsUsiTDFC8f9eq3EVf02UogiIgAiIQK0ISISpFXnlKwI5F2EwOPBi4dwTDBLOieHcFnaoMVwwaDC8EF3C514xZDDKMGq4v1YXhiOGHB4/GJVNKYuMpeRbK+/GUi3rHz4PHbzSEDPwGAnhO9HewFzAWEKsYSwhfvA844y/c3GoLPeE3xE5EEJIk/vwICEd5gr+HuYUniVd8uc3nuc+PGb4wzxDHuGMqMJy8zz5ch/zD2kXXqRJ2tzD89yPdx1pUo6o6ERZ+J2L8lMG7iFtnkWkIQ8O/I2eW9XY6NG8onkleQLKUQREQAREoFICEmEqJajnRSAGArU0lmIoftlJYKiwO0zoD4YUO8rsXodQIYwVwhAINcB44/wVdsqjRk3ZmSf8oIylhIFbdnkdV4F03uuffI+rLEcEGT6fzUHjnF3VlHlO80plzMt5WuOqHGp6RgREQAREIEpAIoz6gwikgIAWdSlohCoXQcZSlQE3kHzex1Xe6598j6s8R4RnROimeMGQm+aVypmXmoLGVanEdL8IiIAIiEAhAYkw6hMikAICWtSloBGqXAQZS1UGLBHmbwQ0ryTf55LOUfNK0sTlYZc8ceUoAiIgAtkjIBEme22qGtUhARlLddhoJRYZY4mwKw4PzdrFwaqc1aODedPVsppX0tUe1SiN5pVqUJ1+mhpXyTNXjiIgAiKQNQISYbLWoqpPXRLQoq4um62kQk+aNMmLMFm8CJ3g6zFNOcMiyfrnfVzlvf5J9rVa5aV5JXnyGlfJM1eOIiACIpA1AhJhstaiqk9dEtCiri6bTYVOOYG8j6u81z/l3VPFq1MCGld12nAqtgiIgAikiIBEmBQ1hoqSXwJa1OW37VXz6hHI+7jKe/2r17OUcp4JaFzlufVVdxEQARGIh4BEmHg4KhURqIiAFnUV4dPDItAggbyPq7zXX8NCBKpBQOOqGlSVpgiIgAjki4BEmHy1t2qbUgJa1KW0YVSsuiaQ93GV9/rXdedV4VNLQOMqtU2jgomACIhA3RCQCFM3TaWCZpmAFnVZbl3VrVYE8j6u8l7/WvU75ZttAhpX2W5f1U4EREAEkiAgESYJyspDBIoQ0KJOXUQE4ieQ93GV9/rH36OUogg4p3GlXiACIiACIlApAYkwlRLU8yIQAwEt6mKAqCREoIBA3sdV3uuvASEC1SCgcVUNqkpTBERABPJFQCJMvtpbtU0pAS3qUtowKlZdE8j7uMp7/eu686rwqSWgcZXaplHBREAERKBuCEiEqZumUkGzTECLuiy3rupWKwJ5H1d5r3+t+p3yzTYBjatst69qJwIiIAJJEJAIkwRl5SECRQhoUacuIgLxE8j7uMp7/ePvUUpRBHQmjPqACIiACIhA5QQkwlTOUCmIQMUEZCxVjFAJiMDfCOR9XOW9/hoSIlANAhpX1aCqNEVABEQgXwQkwuSrvVXblBLQoi6lDaNi1TWBvI+rvNe/rjuvCp9aAhpXqW0aFUwEREAE6oaARJi6aSoVNMsEtKjLcuuqbrUikPdxlff616rfKd9sE9C4ynb7qnYiIAKY8rXKAAAJbklEQVQikAQBiTBJUFYeIlCEgBZ16iIiED+BvI+rvNc//h6lFEVAZ8KoD4iACIiACFROQCJM5QyVgghUTEDGUsUIlYAI/I1A3sdV3uuvISEC1SCgcVUNqkpTBERABPJFQCJMvtpbtU0pAS3qUtowKlZdE8j7uMp7/eu686rwqSWgcZXaplHBREAERKBuCEiEqZumUkGzTECLuiy3rupWKwJ5H1d5r3+t+p3yzTYBjatst69qJwIiIAJJEJAIkwRl5SECRQhoUacuIgLxE8j7uMp7/ePvUUpRBHQmjPqACIiACIhA5QQkwlTOUCmIQMUEZCxVjFAJiMDfCOR9XOW9/hoSIlANAhpX1aCqNEVABEQgXwQkwuSrvVXblBLQoi6lDaNi1TWBvI+rvNe/rjuvCp9aAhpXqW0aFUwEREAE6oaARJi6aSoVNMsEtKjLcuuqbrUikPdxlff616rfKd9sE9C4ynb7qnYiIAIikAQBiTBJUFYeIlCEgBZ16iIiED+BvI+rvNc//h6lFEVAZ8KoD4iACIiACFROQCJM5QyVgghUTEDGUsUIlYAI/I1A3sdV3uuvISEC1SCgcVUNqkpTBERABPJFQCJMvtpbtU0pAS3qUtowKlZdE8j7uMp7/eu686rwqSWgcZXaplHBREAERKBuCEiEqZumUkGzTECLuiy3rupWKwJ5H1d5r3+t+p3yzTYBjatst69qJwIiIAJJEJAIkwRl5SECRQhoUacuIgLxE8j7uMp7/ePvUUpRBHQmjPqACIiACIhA5QQkwlTOUCmIQMUEZCxVjFAJiMDfCOR9XOW9/hoSIlANAhpX1aCqNEVABEQgXwQkwuSrvVXblBJgUTd+/HjXvHnzlJZQxRKB+iPw119/+UIvuOCC9Vf4GEqseSUGiEpCBAoI5H1eUYcQAREQARGonIBEmMoZKgURiIUABpMuERCB+Ak0a9Ys/kTrJEXNK3XSUCpm3RHI87xSd42lAouACIhAyghIhElZg6g4IiACIiACIiACIiACIiACIiACIiAC2SQgESab7apaiYAIiIAIiIAIiIAIiIAIiIAIiIAIpIyARJiUNYiKIwIiIAIiIAIiIAIiIAIiIAIiIAIikE0CEmGy2a6qlQiIgAiIgAiIgAiIgAiIgAiIgAiIQMoISIRJWYOoOCIgAiIgAiIgAiIgAiIgAiIgAiIgAtkkIBEmm+2qWomACIiACIiACIiACIiACIiACIiACKSMgESYlDWIiiMCIiACIiACIiACIiACIiACIiACIpBNAhJhstmuqpUIiIAIiIAIiIAIiIAIiIAIiIAIiEDKCEiESVmDqDgiIAIiIAIiIAIiIAIiIAIiIAIiIALZJCARJpvtqlqJgAiIgAiIgAiIgAiIgAiIgAiIgAikjIBEmJQ1iIojAiIgAiIgAiIgAiIgAiIgAiIgAiKQTQISYbLZrqqVCIiACIiACIiACIiACIiACIiACIhAyghIhElZg6g4IiACIiACIiACIiACIiACIiACIiAC2SQgESab7apaiYAIiIAIiIAIiIAIiIAIiIAIiIAIpIyARJiUNYiKIwIiIAIiIAIiIAIiIAIiIAIiIAIikE0CEmGy2a6qlQiIgAiIgAiIgAiIgAiIgAiIgAiIQMoISIRJWYOoOCIgAiIgAiIgAiIgAiIgAiIgAiIgAtkkIBEmm+2qWomACIiACIiACIiACIiACIiACIiACKSMgESYlDWIiiMCIiACIiACIiACIiACIiACIiACIpBNAhJhstmuqpUIiIAIiIAIiIAIiIAIiIAIiIAIiEDKCEiESVmDqDgiIAIiIAIiIAIiIAIiIAIiIAIiIALZJCARJpvtqlqJgAiIgAiIgAiIgAiIgAiIgAiIgAikjIBEmJQ1iIojAiIgAiIgAiIgAiIgAiIgAiIgAiKQTQISYbLZrqqVCIiACIiACIiACIiACIiACIiACIhAyghIhElZg6g4IiACIiACIiACIiACIiACIiACIiAC2SQgESab7apaiYAIiIAIiIAIiIAIiIAIiIAIiIAIpIyARJiUNYiKIwIiIAIiIAIiIAIiIAIiIAIiIAIikE0CEmGy2a6qlQiIgAiIgAiIgAiIgAiIgAiIgAiIQMoISIRJWYOoOCIgAiIgAiIgAiIgAiIgAiIgAiIgAtkkIBEmm+2qWomACIiACIiACIiACIiACIiACIiACKSMgESYlDWIiiMCIiACIiACIiACIiACIiACIiACIpBNAhJhstmuqpUIiIAIiIAIiIAIiIAIiIAIiIAIiEDKCEiESVmDqDgiIAIiIAIiIAIiIAIiIAIiIAIiIALZJCARJpvtqlqJgAiIgAiIgAiIgAiIgAiIgAiIgAikjIBEmJQ1iIojAiIgAiIgAiIgAiIgAiIgAiIgAiKQTQISYbLZrqqVCIiACIiACIiACIiACIiACIiACIhAyghIhElZg6g4IiACIiACIiACIiACIiACIiACIiAC2SQgESab7apaiYAIiIAIiIAIiIAIiIAIiIAIiIAIpIyARJiUNYiKIwIiIAIiIAIiIAIiIAIiIAIiIAIikE0CEmGy2a6qlQiIgAiIgAiIgAiIgAiIgAiIgAiIQMoISIRJWYOoOCIgAiIgAiIgAiIgAiIgAiIgAiIgAtkkIBEmm+2qWomACIiACIiACIiACIiACIiACIiACKSMgESYlDWIiiMCIiACIiACIiACIiACIiACIiACIpBNAhJhstmuqpUIiIAIiIAIiIAIiIAIiIAIiIAIiEDKCEiESVmDqDgiIAIiIAIiIAIiIAIiIAIiIAIiIALZJCARJpvtqlqJgAiIgAiIgAiIgAiIgAiIgAiIgAikjIBEmJQ1iIojAiIgAiIgAiIgAiIgAiIgAiIgAiKQTQISYbLZrqqVCIiACIiACIiACIiACIiACIiACIhAyghIhElZg6g4IiACIiACIiACIiACIiACIiACIiAC2SQgESab7apaiYAIiIAIiIAIiIAIiIAIiIAIiIAIpIyARJiUNYiKIwIiIAIiIAIiIAIiIAIiIAIiIAIikE0CEmGy2a6qlQiIgAiIgAiIgAiIgAiIgAiIgAiIQMoISIRJWYOoOCIgAiIgAiIgAiIgAiIgAiIgAiIgAtkkIBEmm+2qWomACIiACIiACIiACIiACIiACIiACKSMgESYlDWIiiMCIiACIiACIiACIiACIiACIiACIpBNAv8PM+K8RhNobPoAAAAASUVORK5CYII=;" parent="1" vertex="1">
          <mxGeometry x="60" y="30" width="1121" height="416" as="geometry" />
        </mxCell>
        <mxCell id="MkHFsCLsAwI2TH1CDEJg-9" style="edgeStyle=orthogonalEdgeStyle;rounded=0;orthogonalLoop=1;jettySize=auto;html=1;exitX=1;exitY=0.5;exitDx=0;exitDy=0;entryX=0;entryY=0.5;entryDx=0;entryDy=0;" parent="1" source="MkHFsCLsAwI2TH1CDEJg-2" target="MkHFsCLsAwI2TH1CDEJg-3" edge="1">
          <mxGeometry relative="1" as="geometry" />
        </mxCell>
        <mxCell id="MkHFsCLsAwI2TH1CDEJg-2" value="&lt;div&gt;前端采集插件：&lt;/div&gt;&lt;div&gt;HTML&lt;/div&gt;" style="rounded=1;whiteSpace=wrap;html=1;" parent="1" vertex="1">
          <mxGeometry x="40" y="550" width="120" height="60" as="geometry" />
        </mxCell>
        <mxCell id="MkHFsCLsAwI2TH1CDEJg-11" value="" style="edgeStyle=orthogonalEdgeStyle;rounded=0;orthogonalLoop=1;jettySize=auto;html=1;" parent="1" source="MkHFsCLsAwI2TH1CDEJg-3" target="MkHFsCLsAwI2TH1CDEJg-10" edge="1">
          <mxGeometry relative="1" as="geometry" />
        </mxCell>
        <mxCell id="MkHFsCLsAwI2TH1CDEJg-3" value="按平台解析HTML" style="whiteSpace=wrap;html=1;rounded=1;" parent="1" vertex="1">
          <mxGeometry x="250" y="550" width="120" height="60" as="geometry" />
        </mxCell>
        <mxCell id="MkHFsCLsAwI2TH1CDEJg-13" value="" style="edgeStyle=orthogonalEdgeStyle;rounded=0;orthogonalLoop=1;jettySize=auto;html=1;" parent="1" source="MkHFsCLsAwI2TH1CDEJg-10" target="MkHFsCLsAwI2TH1CDEJg-12" edge="1">
          <mxGeometry relative="1" as="geometry" />
        </mxCell>
        <mxCell id="MkHFsCLsAwI2TH1CDEJg-10" value="&lt;div&gt;封装采集对象：&lt;/div&gt;&lt;div&gt;&lt;br&gt;&lt;/div&gt;&lt;div&gt;CrawlProductDto&lt;br&gt;&lt;/div&gt;" style="whiteSpace=wrap;html=1;rounded=1;" parent="1" vertex="1">
          <mxGeometry x="451" y="550" width="120" height="60" as="geometry" />
        </mxCell>
        <mxCell id="MkHFsCLsAwI2TH1CDEJg-15" value="" style="edgeStyle=orthogonalEdgeStyle;rounded=0;orthogonalLoop=1;jettySize=auto;html=1;" parent="1" source="MkHFsCLsAwI2TH1CDEJg-12" target="MkHFsCLsAwI2TH1CDEJg-14" edge="1">
          <mxGeometry relative="1" as="geometry" />
        </mxCell>
        <mxCell id="MkHFsCLsAwI2TH1CDEJg-12" value="&lt;div&gt;转换成搬家对象：&lt;/div&gt;&lt;div&gt;&lt;br&gt;&lt;/div&gt;&lt;div&gt;ProductMoveVo&lt;br&gt;&lt;/div&gt;" style="whiteSpace=wrap;html=1;rounded=1;" parent="1" vertex="1">
          <mxGeometry x="650" y="550" width="120" height="60" as="geometry" />
        </mxCell>
        <mxCell id="vtB4lL2W39avdcQjAUXD-2" value="" style="edgeStyle=orthogonalEdgeStyle;rounded=0;orthogonalLoop=1;jettySize=auto;html=1;" parent="1" source="MkHFsCLsAwI2TH1CDEJg-14" target="vtB4lL2W39avdcQjAUXD-1" edge="1">
          <mxGeometry relative="1" as="geometry" />
        </mxCell>
        <mxCell id="MkHFsCLsAwI2TH1CDEJg-14" value="保存草稿" style="whiteSpace=wrap;html=1;rounded=1;" parent="1" vertex="1">
          <mxGeometry x="850" y="550" width="120" height="60" as="geometry" />
        </mxCell>
        <mxCell id="vtB4lL2W39avdcQjAUXD-5" value="" style="edgeStyle=orthogonalEdgeStyle;rounded=0;orthogonalLoop=1;jettySize=auto;html=1;" parent="1" source="vtB4lL2W39avdcQjAUXD-1" target="vtB4lL2W39avdcQjAUXD-4" edge="1">
          <mxGeometry relative="1" as="geometry" />
        </mxCell>
        <mxCell id="vtB4lL2W39avdcQjAUXD-1" value="保存搬家记录" style="whiteSpace=wrap;html=1;rounded=1;" parent="1" vertex="1">
          <mxGeometry x="850" y="690" width="120" height="60" as="geometry" />
        </mxCell>
        <mxCell id="vtB4lL2W39avdcQjAUXD-4" value="tiktok自动填充上次选择类目" style="whiteSpace=wrap;html=1;rounded=1;" parent="1" vertex="1">
          <mxGeometry x="1050" y="690" width="120" height="60" as="geometry" />
        </mxCell>
        <mxCell id="vtB4lL2W39avdcQjAUXD-6" value="可用于检查是否采集过" style="text;html=1;align=center;verticalAlign=middle;resizable=0;points=[];autosize=1;strokeColor=none;fillColor=none;" parent="1" vertex="1">
          <mxGeometry x="740" y="820" width="140" height="30" as="geometry" />
        </mxCell>
        <mxCell id="vtB4lL2W39avdcQjAUXD-7" value="" style="endArrow=classic;html=1;rounded=0;entryX=0.5;entryY=1;entryDx=0;entryDy=0;" parent="1" source="vtB4lL2W39avdcQjAUXD-6" target="vtB4lL2W39avdcQjAUXD-1" edge="1">
          <mxGeometry width="50" height="50" relative="1" as="geometry">
            <mxPoint x="890" y="860" as="sourcePoint" />
            <mxPoint x="940" y="810" as="targetPoint" />
          </mxGeometry>
        </mxCell>
        <mxCell id="GeGtFkLEg_Td-1IpfvMp-1" value="只传URL可能会被封IP" style="text;html=1;align=center;verticalAlign=middle;resizable=0;points=[];autosize=1;strokeColor=none;fillColor=none;" vertex="1" parent="1">
          <mxGeometry x="30" y="620" width="140" height="30" as="geometry" />
        </mxCell>
      </root>
    </mxGraphModel>
  </diagram>
</mxfile>
